<svg width="1440" height="285" viewBox="0 0 1440 285" fill="none" xmlns="http://www.w3.org/2000/svg">
<path d="M507 284.571V0H905.4V143.951H897.613V75.5332H851.72V115.263H827.745V94.7133H808.739V131.017H782.536V96.0827L757.877 71.424V89.9177H751.712V119.372H744.178V90.603H729.451V71.0814L697.599 102.933V124.008H679.104V107.727H667.46V78.2731H596.906V114.578H588.002V101.562H576.357V46.7642H550.328V107.727H536.628V80.3288H507.174L507 82.9412V213.9V215.275V233.56V239.32V284.571Z" fill="white"/>
<path d="M507 0.00012207V197.079H905.4V0.00012207H507Z" fill="#EEFEFF"/>
<path d="M840.416 26.0941C840.416 34.6984 833.441 41.6749 824.837 41.6749C816.231 41.6749 809.256 34.6984 809.256 26.0941C809.256 17.4886 816.231 10.5132 824.837 10.5132C833.441 10.5132 840.416 17.4886 840.416 26.0941Z" fill="#F6F68B"/>
<path d="M840.416 26.0941C840.416 34.6984 833.441 41.6749 824.837 41.6749C816.231 41.6749 809.256 34.6984 809.256 26.0941C809.256 17.4886 816.231 10.5132 824.837 10.5132C833.441 10.5132 840.416 17.4886 840.416 26.0941Z" fill="#FFE09D"/>
<path d="M840.416 26.0941C840.416 34.6984 833.441 41.6749 824.837 41.6749C816.231 41.6749 809.256 34.6984 809.256 26.0941C809.256 17.4886 816.231 10.5132 824.837 10.5132C833.441 10.5132 840.416 17.4886 840.416 26.0941Z" fill="#FFD119" fill-opacity="0.73"/>
<path d="M842.122 29.3575C844.412 26.8965 847.41 26.5482 850.736 27.172C852.69 27.5396 854.693 26.7724 855.863 25.164C861.536 17.3656 865.607 19.5159 868.859 26.7463C869.865 28.983 872.316 30.1304 874.711 29.6011C876.395 29.2277 877.767 30.1782 878.97 31.8378C881.439 35.2447 878.997 40.0153 874.79 40.0153H834.949C831.72 40.0153 829.225 37.0694 829.88 33.9072C830.424 31.2892 832.776 30.1167 837.565 30.8908C839.243 31.1617 840.964 30.6005 842.122 29.3575Z" fill="white"/>
<path d="M1046.35 56.124C1048.64 53.663 1051.63 53.3147 1054.96 53.9385C1056.92 54.3061 1058.92 53.5389 1060.09 51.9305C1065.76 44.1321 1069.83 46.2823 1073.08 53.5127C1074.09 55.7495 1076.54 56.8969 1078.94 56.3676C1080.62 55.9942 1081.99 56.9447 1083.19 58.6043C1085.66 62.0112 1083.22 66.7817 1079.02 66.7817H1039.17C1035.94 66.7817 1033.45 63.8359 1034.11 60.6737C1034.65 58.0556 1037 56.8832 1041.79 57.6572C1043.47 57.9282 1045.19 57.367 1046.35 56.124Z" fill="white"/>
<path d="M1397.84 51.124C1395.55 48.663 1392.55 48.3147 1389.22 48.9385C1387.27 49.3061 1385.27 48.5389 1384.1 46.9305C1378.42 39.1321 1374.35 41.2823 1371.1 48.5127C1370.09 50.7495 1367.64 51.8969 1365.25 51.3676C1363.56 50.9942 1362.19 51.9447 1360.99 53.6043C1358.52 57.0112 1360.96 61.7817 1365.17 61.7817H1405.01C1408.24 61.7817 1410.73 58.8359 1410.08 55.6737C1409.53 53.0556 1407.18 51.8832 1402.39 52.6572C1400.72 52.9282 1398.99 52.367 1397.84 51.124Z" fill="white"/>
<path d="M643.074 46.746C641.46 45.0113 639.347 44.7654 637.004 45.2059C635.626 45.4655 634.215 44.9248 633.391 43.791C629.393 38.2954 626.525 39.8104 624.232 44.9066C623.523 46.4819 621.796 47.2913 620.108 46.9179C618.921 46.655 617.954 47.3243 617.107 48.4944C615.366 50.8951 617.087 54.2576 620.052 54.2576H648.129C650.405 54.2576 652.163 52.1813 651.701 49.9526C651.319 48.1074 649.661 47.281 646.285 47.8263C645.104 48.0175 643.89 47.6225 643.074 46.746Z" fill="white"/>
<path d="M851.72 75.5333V115.263H827.745V94.7134H808.739V131.017H782.536V96.0828L757.877 71.4241V89.9178H751.712V119.372H744.178V90.6031H729.451V71.0815L697.599 102.933V124.008H679.104V107.727H667.46V78.2732H596.906V114.578H588.002V101.562H576.357V46.7643H550.328V107.727H536.628V80.3289H507.174L507 82.9413V213.9H897.613V75.5333H851.72Z" fill="#98C6D8"/>
<path d="M1248.72 72.769V112.499H1224.74V91.9491H1205.74V128.252H1179.54V93.3185L1154.88 79.5V87.1535H1148.71V116.608H1141.18V87.8388H1126.45V68.3172H1094.6V121.244H1076.1V104.963H1064.46V75.5089H993.906V111.813H985.002V98.7982H973.357V44H947.328V104.963H933.628V77.5646H904.174L904 80.177V211.136H1294.61V72.769H1248.72Z" fill="#98C6D8"/>
<path d="M192.893 74.769V114.499H216.868V93.9491H235.874V130.252H262.077V95.3185L286.736 81.5V89.1535H292.901V118.608H300.435V89.8388H315.162V70.3172H347.014V123.244H365.509V106.963H377.153V77.5089H447.707V113.813H456.611V100.798H468.256V46H494.285V106.963H507.984V79.5646H537.439L537.613 82.177V213.136H147V74.769H192.893Z" fill="#98C6D8"/>
<path d="M1608.72 72.769V112.499H1584.74V91.9491H1565.74V128.252H1539.54V93.3185L1514.88 68.6598V87.1535H1508.71V116.608H1501.18V87.8388H1486.45V68.3172L1454.6 100.169V121.244H1436.1V104.963H1424.46V75.5089H1353.91V111.813H1345V98.7982H1333.36V59.5L1307.33 77.5646V104.963H1293.63V77.5646H1264.17L1264 80.177V211.136H1654.61V72.769H1608.72Z" fill="#98C6D8"/>
<path d="M-167.107 74.769V114.499H-143.132V93.9491H-124.126V130.252H-97.9227V95.3185L-73.2641 70.6598V89.1535H-67.0991V118.608H-59.5648V89.8388H-44.8377V70.3172L-12.9862 102.169V123.244H5.50871V106.963H17.1534V77.5089H87.7066V113.813H96.6114V100.798H108.256V61.5L134.285 79.5646V106.963H147.985V79.5646H177.439L177.613 82.177V213.136H-213V74.769H-167.107Z" fill="#98C6D8"/>
<path d="M733.138 215.275H507V185.971C507.19 185.916 507.381 185.863 507.574 185.809L522.49 181.299L526.666 180.037L529.419 179.205C529.465 179.05 529.512 178.896 529.56 178.744C529.75 178.134 529.949 177.542 530.156 176.968C531.159 174.198 532.364 171.844 533.747 169.856C534.14 169.292 534.548 168.758 534.969 168.251C539.072 163.314 544.491 161.074 550.708 160.474C551.3 160.418 551.9 160.375 552.505 160.347C553.535 160.298 554.585 160.29 555.653 160.32C557.556 160.369 559.516 160.534 561.518 160.786C562.07 160.856 562.625 160.932 563.182 161.015C564.222 161.169 565.271 161.344 566.33 161.538C566.643 161.594 566.956 161.654 567.271 161.714C571.164 162.46 575.17 163.435 579.205 164.472C580.612 163.566 582.006 162.764 583.388 162.06C585.207 161.132 587.007 160.378 588.786 159.785C590.162 159.325 591.526 158.963 592.879 158.693C594.499 158.37 596.103 158.179 597.692 158.112C599.321 158.044 600.935 158.107 602.533 158.291C604.791 158.552 607.019 159.058 609.22 159.785C612.288 160.797 615.303 162.239 618.275 164.046C619.247 164.638 620.214 165.268 621.176 165.935C622.202 166.646 623.224 167.4 624.24 168.193C625.856 169.453 627.46 170.813 629.053 172.261C629.581 172.743 630.109 173.232 630.635 173.733C630.82 173.908 631.006 174.086 631.19 174.265C631.396 174.462 631.601 174.661 631.806 174.862C632.018 175.07 632.23 175.278 632.44 175.488C632.645 175.692 632.85 175.897 633.054 176.103C635.275 178.343 637.475 180.743 639.66 183.27C643.144 180.199 646.697 177.542 650.323 175.294H650.324C650.559 175.149 650.793 175.005 651.028 174.862C651.165 174.78 651.302 174.698 651.439 174.618C652.817 173.798 654.204 173.039 655.602 172.338C655.638 172.318 655.676 172.3 655.714 172.282C656.826 171.725 657.945 171.207 659.069 170.727C659.517 170.535 659.964 170.349 660.414 170.169C661.482 169.741 662.558 169.346 663.639 168.984C664.596 168.663 665.555 168.37 666.52 168.101C671.922 166.596 677.463 165.897 683.142 165.994H683.143C689.897 166.108 696.848 167.349 703.992 169.697C704.184 169.761 704.378 169.825 704.57 169.89C705.275 170.127 705.98 170.375 706.688 170.634L707.497 171.997L709.385 175.184L720.192 193.426L722.357 197.079L722.926 198.04L724.395 200.519L726.827 204.623L727.605 205.939L730.153 210.238L730.621 211.027L732.323 213.9L732.369 213.978L733.138 215.275Z" fill="#328E53"/>
<path d="M306 215.189H532.138V185.885C531.947 185.831 531.756 185.777 531.564 185.724L516.648 181.214L512.471 179.951L509.719 179.119C509.672 178.965 509.626 178.811 509.578 178.658C509.388 178.048 509.189 177.456 508.981 176.883C507.979 174.112 506.773 171.758 505.39 169.771C504.997 169.206 504.59 168.672 504.169 168.166C500.065 163.229 494.647 160.989 488.43 160.389C487.838 160.332 487.238 160.29 486.632 160.261C485.602 160.212 484.553 160.204 483.485 160.234C481.582 160.283 479.622 160.448 477.619 160.701C477.067 160.77 476.513 160.846 475.955 160.93C474.916 161.083 473.866 161.258 472.808 161.452C472.495 161.509 472.182 161.568 471.866 161.628C467.973 162.374 463.968 163.35 459.933 164.387C458.526 163.48 457.131 162.678 455.749 161.974C453.93 161.047 452.131 160.292 450.352 159.699C448.976 159.239 447.612 158.877 446.258 158.607C444.639 158.284 443.035 158.093 441.446 158.027C439.817 157.959 438.203 158.021 436.605 158.206C434.346 158.466 432.119 158.973 429.917 159.699C426.85 160.711 423.834 162.153 420.862 163.961C419.89 164.553 418.924 165.182 417.962 165.849C416.935 166.561 415.914 167.314 414.898 168.108C413.281 169.368 411.677 170.728 410.085 172.176C409.557 172.657 409.029 173.147 408.503 173.648C408.317 173.823 408.132 174 407.947 174.179C407.741 174.376 407.536 174.575 407.331 174.777C407.12 174.984 406.908 175.192 406.697 175.403C406.492 175.607 406.288 175.811 406.084 176.018C403.863 178.258 401.663 180.657 399.477 183.184C395.994 180.113 392.44 177.456 388.815 175.208H388.814C388.578 175.064 388.345 174.919 388.109 174.777C387.973 174.695 387.836 174.613 387.698 174.532C386.321 173.712 384.933 172.953 383.535 172.252C383.499 172.233 383.461 172.214 383.424 172.196C382.312 171.64 381.193 171.122 380.068 170.641C379.621 170.449 379.174 170.263 378.724 170.084C377.655 169.656 376.579 169.261 375.498 168.899C374.542 168.578 373.582 168.284 372.617 168.015C367.216 166.511 361.675 165.812 355.996 165.908H355.995C349.24 166.022 342.29 167.263 335.146 169.611C334.953 169.675 334.76 169.74 334.568 169.805C333.863 170.042 333.157 170.29 332.449 170.548L331.641 171.912L329.753 175.099L318.946 193.34L316.781 196.994L316.212 197.955L314.742 200.434L312.311 204.537L311.532 205.853L308.985 210.152L308.517 210.941L306.815 213.814L306.768 213.893L306 215.189Z" fill="#328E53"/>
<path d="M160 210.189H386.138V180.885C385.947 180.831 385.756 180.777 385.564 180.724L370.648 176.214L366.471 174.951L363.719 174.119C363.672 173.965 363.626 173.811 363.578 173.658C363.388 173.048 363.189 172.456 362.981 171.883C361.979 169.112 360.773 166.758 359.39 164.771C358.997 164.206 358.59 163.672 358.169 163.166C354.065 158.229 348.647 155.989 342.43 155.389C341.838 155.332 341.238 155.29 340.632 155.261C339.602 155.212 338.553 155.204 337.485 155.234C335.582 155.283 333.622 155.448 331.619 155.701C331.067 155.77 330.513 155.846 329.955 155.93C328.916 156.083 327.866 156.258 326.808 156.452C326.495 156.509 326.182 156.568 325.866 156.628C321.973 157.374 317.968 158.35 313.933 159.387C312.526 158.48 311.131 157.678 309.749 156.974C307.93 156.047 306.131 155.292 304.352 154.699C302.976 154.239 301.612 153.877 300.258 153.607C298.639 153.284 297.035 153.093 295.446 153.027C293.817 152.959 292.203 153.021 290.605 153.206C288.346 153.466 286.119 153.973 283.917 154.699C280.85 155.711 277.834 157.153 274.862 158.961C273.89 159.553 272.924 160.182 271.962 160.849C270.935 161.561 269.914 162.314 268.898 163.108C267.281 164.368 265.677 165.728 264.085 167.176C263.557 167.657 263.029 168.147 262.503 168.648C262.317 168.823 262.132 169 261.947 169.179C261.741 169.376 261.536 169.575 261.331 169.777C261.12 169.984 260.908 170.192 260.697 170.403C260.492 170.607 260.288 170.811 260.084 171.018C257.863 173.258 255.663 175.657 253.477 178.184C249.994 175.113 246.44 172.456 242.815 170.208H242.814C242.578 170.064 242.345 169.919 242.109 169.777C241.973 169.695 241.836 169.613 241.698 169.532C240.321 168.712 238.933 167.953 237.535 167.252C237.499 167.233 237.461 167.214 237.424 167.196C236.312 166.64 235.193 166.122 234.068 165.641C233.621 165.449 233.174 165.263 232.724 165.084C231.655 164.656 230.579 164.261 229.498 163.899C228.542 163.578 227.582 163.284 226.617 163.015C221.216 161.511 215.675 160.812 209.996 160.908H209.995C203.24 161.022 196.29 162.263 189.146 164.611C188.953 164.675 188.76 164.74 188.568 164.805C187.863 165.042 187.157 165.29 186.449 165.548L185.641 166.912L183.753 170.099L172.946 188.34L170.781 191.994L170.212 192.955L168.742 195.434L166.311 199.537L165.532 200.853L162.985 205.152L162.517 205.941L160.815 208.814L160.768 208.893L160 210.189Z" fill="#328E53"/>
<path d="M214.138 211.189H-12V181.885C-11.8099 181.831 -11.6187 181.777 -11.4263 181.724L3.48979 177.214L7.66616 175.951L10.4185 175.119C10.4652 174.965 10.5119 174.811 10.5597 174.658C10.7498 174.048 10.949 173.456 11.1561 172.883C12.159 170.112 13.3644 167.758 14.7474 165.771C15.1401 165.206 15.5477 164.672 15.9688 164.166C20.0723 159.229 25.4906 156.989 31.7079 156.389C32.2998 156.332 32.8997 156.29 33.5052 156.261C34.5354 156.212 35.5849 156.204 36.6526 156.234C38.5558 156.283 40.5159 156.448 42.5182 156.701C43.0703 156.77 43.6246 156.846 44.1824 156.93C45.2216 157.083 46.2711 157.258 47.3297 157.452C47.6428 157.509 47.9558 157.568 48.2711 157.628C52.164 158.374 56.1696 159.35 60.2049 160.387C61.6118 159.48 63.0062 158.678 64.3881 157.974C66.2071 157.047 68.0067 156.292 69.7858 155.699C71.162 155.239 72.5257 154.877 73.8791 154.607C75.4989 154.284 77.1027 154.093 78.6918 154.027C80.3207 153.959 81.9347 154.021 83.5329 154.206C85.7913 154.466 88.0189 154.973 90.2203 155.699C93.288 156.711 96.3033 158.153 99.2754 159.961C100.247 160.553 101.214 161.182 102.176 161.849C103.202 162.561 104.224 163.314 105.24 164.108C106.856 165.368 108.46 166.728 110.053 168.176C110.581 168.657 111.109 169.147 111.635 169.648C111.82 169.823 112.006 170 112.19 170.179C112.396 170.376 112.601 170.575 112.806 170.777C113.018 170.984 113.23 171.192 113.44 171.403C113.645 171.607 113.85 171.811 114.054 172.018C116.275 174.258 118.475 176.657 120.66 179.184C124.144 176.113 127.697 173.456 131.323 171.208H131.324C131.559 171.064 131.793 170.919 132.028 170.777C132.165 170.695 132.302 170.613 132.439 170.532C133.817 169.712 135.204 168.953 136.602 168.252C136.638 168.233 136.676 168.214 136.714 168.196C137.826 167.64 138.945 167.122 140.069 166.641C140.517 166.449 140.964 166.263 141.414 166.084C142.482 165.656 143.558 165.261 144.639 164.899C145.596 164.578 146.555 164.284 147.52 164.015C152.922 162.511 158.463 161.812 164.142 161.908H164.143C170.897 162.022 177.848 163.263 184.992 165.611C185.184 165.675 185.378 165.74 185.57 165.805C186.275 166.042 186.98 166.29 187.688 166.548L188.497 167.912L190.385 171.099L201.192 189.34L203.357 192.994L203.926 193.955L205.395 196.434L207.827 200.537L208.605 201.853L211.153 206.152L211.621 206.941L213.323 209.814L213.369 209.893L214.138 211.189Z" fill="#328E53"/>
<path d="M896 212.189H1122.14V182.885C1121.95 182.831 1121.76 182.777 1121.56 182.724L1106.65 178.214L1102.47 176.951L1099.72 176.119C1099.67 175.965 1099.63 175.811 1099.58 175.658C1099.39 175.048 1099.19 174.456 1098.98 173.883C1097.98 171.112 1096.77 168.758 1095.39 166.771C1095 166.206 1094.59 165.672 1094.17 165.166C1090.07 160.229 1084.65 157.989 1078.43 157.389C1077.84 157.332 1077.24 157.29 1076.63 157.261C1075.6 157.212 1074.55 157.204 1073.48 157.234C1071.58 157.283 1069.62 157.448 1067.62 157.701C1067.07 157.77 1066.51 157.846 1065.96 157.93C1064.92 158.083 1063.87 158.258 1062.81 158.452C1062.49 158.509 1062.18 158.568 1061.87 158.628C1057.97 159.374 1053.97 160.35 1049.93 161.387C1048.53 160.48 1047.13 159.678 1045.75 158.974C1043.93 158.047 1042.13 157.292 1040.35 156.699C1038.98 156.239 1037.61 155.877 1036.26 155.607C1034.64 155.284 1033.03 155.093 1031.45 155.027C1029.82 154.959 1028.2 155.021 1026.6 155.206C1024.35 155.466 1022.12 155.973 1019.92 156.699C1016.85 157.711 1013.83 159.153 1010.86 160.961C1009.89 161.553 1008.92 162.182 1007.96 162.849C1006.93 163.561 1005.91 164.314 1004.9 165.108C1003.28 166.368 1001.68 167.728 1000.08 169.176C999.557 169.657 999.028 170.147 998.503 170.648C998.317 170.823 998.131 171 997.947 171.179C997.741 171.376 997.536 171.575 997.331 171.777C997.12 171.984 996.908 172.192 996.697 172.403C996.492 172.607 996.287 172.811 996.084 173.018C993.863 175.258 991.663 177.657 989.477 180.184C985.994 177.113 982.44 174.456 978.815 172.208H978.814C978.578 172.064 978.345 171.919 978.109 171.777C977.972 171.695 977.836 171.613 977.698 171.532C976.321 170.712 974.933 169.953 973.535 169.252C973.499 169.233 973.461 169.214 973.424 169.196C972.312 168.64 971.193 168.122 970.068 167.641C969.621 167.449 969.173 167.263 968.724 167.084C967.655 166.656 966.579 166.261 965.498 165.899C964.542 165.578 963.582 165.284 962.617 165.015C957.216 163.511 951.675 162.812 945.996 162.908H945.995C939.24 163.022 932.29 164.263 925.146 166.611C924.953 166.675 924.76 166.74 924.567 166.805C923.863 167.042 923.157 167.29 922.449 167.548L921.641 168.912L919.753 172.099L908.946 190.34L906.781 193.994L906.211 194.955L904.742 197.434L902.311 201.537L901.532 202.853L898.985 207.152L898.517 207.941L896.815 210.814L896.768 210.893L896 212.189Z" fill="#328E53"/>
<path d="M1348.14 212.189H1122V182.885C1122.19 182.831 1122.38 182.777 1122.57 182.724L1137.49 178.214L1141.67 176.951L1144.42 176.119C1144.47 175.965 1144.51 175.811 1144.56 175.658C1144.75 175.048 1144.95 174.456 1145.16 173.883C1146.16 171.112 1147.36 168.758 1148.75 166.771C1149.14 166.206 1149.55 165.672 1149.97 165.166C1154.07 160.229 1159.49 157.989 1165.71 157.389C1166.3 157.332 1166.9 157.29 1167.51 157.261C1168.54 157.212 1169.58 157.204 1170.65 157.234C1172.56 157.283 1174.52 157.448 1176.52 157.701C1177.07 157.77 1177.62 157.846 1178.18 157.93C1179.22 158.083 1180.27 158.258 1181.33 158.452C1181.64 158.509 1181.96 158.568 1182.27 158.628C1186.16 159.374 1190.17 160.35 1194.2 161.387C1195.61 160.48 1197.01 159.678 1198.39 158.974C1200.21 158.047 1202.01 157.292 1203.79 156.699C1205.16 156.239 1206.53 155.877 1207.88 155.607C1209.5 155.284 1211.1 155.093 1212.69 155.027C1214.32 154.959 1215.93 155.021 1217.53 155.206C1219.79 155.466 1222.02 155.973 1224.22 156.699C1227.29 157.711 1230.3 159.153 1233.28 160.961C1234.25 161.553 1235.21 162.182 1236.18 162.849C1237.2 163.561 1238.22 164.314 1239.24 165.108C1240.86 166.368 1242.46 167.728 1244.05 169.176C1244.58 169.657 1245.11 170.147 1245.63 170.648C1245.82 170.823 1246.01 171 1246.19 171.179C1246.4 171.376 1246.6 171.575 1246.81 171.777C1247.02 171.984 1247.23 172.192 1247.44 172.403C1247.65 172.607 1247.85 172.811 1248.05 173.018C1250.27 175.258 1252.47 177.657 1254.66 180.184C1258.14 177.113 1261.7 174.456 1265.32 172.208H1265.32C1265.56 172.064 1265.79 171.919 1266.03 171.777C1266.17 171.695 1266.3 171.613 1266.44 171.532C1267.82 170.712 1269.2 169.953 1270.6 169.252C1270.64 169.233 1270.68 169.214 1270.71 169.196C1271.83 168.64 1272.94 168.122 1274.07 167.641C1274.52 167.449 1274.96 167.263 1275.41 167.084C1276.48 166.656 1277.56 166.261 1278.64 165.899C1279.6 165.578 1280.56 165.284 1281.52 165.015C1286.92 163.511 1292.46 162.812 1298.14 162.908H1298.14C1304.9 163.022 1311.85 164.263 1318.99 166.611C1319.18 166.675 1319.38 166.74 1319.57 166.805C1320.27 167.042 1320.98 167.29 1321.69 167.548L1322.5 168.912L1324.38 172.099L1335.19 190.34L1337.36 193.994L1337.93 194.955L1339.4 197.434L1341.83 201.537L1342.61 202.853L1345.15 207.152L1345.62 207.941L1347.32 210.814L1347.37 210.893L1348.14 212.189Z" fill="#328E53"/>
<path d="M1289 211.189H1515.14V181.885C1514.95 181.831 1514.76 181.777 1514.56 181.724L1499.65 177.214L1495.47 175.951L1492.72 175.119C1492.67 174.965 1492.63 174.811 1492.58 174.658C1492.39 174.048 1492.19 173.456 1491.98 172.883C1490.98 170.112 1489.77 167.758 1488.39 165.771C1488 165.206 1487.59 164.672 1487.17 164.166C1483.07 159.229 1477.65 156.989 1471.43 156.389C1470.84 156.332 1470.24 156.29 1469.63 156.261C1468.6 156.212 1467.55 156.204 1466.48 156.234C1464.58 156.283 1462.62 156.448 1460.62 156.701C1460.07 156.77 1459.51 156.846 1458.96 156.93C1457.92 157.083 1456.87 157.258 1455.81 157.452C1455.49 157.509 1455.18 157.568 1454.87 157.628C1450.97 158.374 1446.97 159.35 1442.93 160.387C1441.53 159.48 1440.13 158.678 1438.75 157.974C1436.93 157.047 1435.13 156.292 1433.35 155.699C1431.98 155.239 1430.61 154.877 1429.26 154.607C1427.64 154.284 1426.03 154.093 1424.45 154.027C1422.82 153.959 1421.2 154.021 1419.6 154.206C1417.35 154.466 1415.12 154.973 1412.92 155.699C1409.85 156.711 1406.83 158.153 1403.86 159.961C1402.89 160.553 1401.92 161.182 1400.96 161.849C1399.93 162.561 1398.91 163.314 1397.9 164.108C1396.28 165.368 1394.68 166.728 1393.08 168.176C1392.56 168.657 1392.03 169.147 1391.5 169.648C1391.32 169.823 1391.13 170 1390.95 170.179C1390.74 170.376 1390.54 170.575 1390.33 170.777C1390.12 170.984 1389.91 171.192 1389.7 171.403C1389.49 171.607 1389.29 171.811 1389.08 172.018C1386.86 174.258 1384.66 176.657 1382.48 179.184C1378.99 176.113 1375.44 173.456 1371.81 171.208H1371.81C1371.58 171.064 1371.34 170.919 1371.11 170.777C1370.97 170.695 1370.84 170.613 1370.7 170.532C1369.32 169.712 1367.93 168.953 1366.54 168.252C1366.5 168.233 1366.46 168.214 1366.42 168.196C1365.31 167.64 1364.19 167.122 1363.07 166.641C1362.62 166.449 1362.17 166.263 1361.72 166.084C1360.66 165.656 1359.58 165.261 1358.5 164.899C1357.54 164.578 1356.58 164.284 1355.62 164.015C1350.22 162.511 1344.67 161.812 1339 161.908H1338.99C1332.24 162.022 1325.29 163.263 1318.15 165.611C1317.95 165.675 1317.76 165.74 1317.57 165.805C1316.86 166.042 1316.16 166.29 1315.45 166.548L1314.64 167.912L1312.75 171.099L1301.95 189.34L1299.78 192.994L1299.21 193.955L1297.74 196.434L1295.31 200.537L1294.53 201.853L1291.98 206.152L1291.52 206.941L1289.81 209.814L1289.77 209.893L1289 211.189Z" fill="#328E53"/>
<path d="M526.666 207.629H522.49V157.927H526.666V207.629Z" fill="#4E2F16"/>
<path d="M553.078 163.458C553.078 164.309 552.953 165.144 552.71 165.958C552.289 167.376 551.515 168.729 550.438 169.99C549.652 170.914 548.703 171.787 547.613 172.599C547.287 172.843 546.949 173.081 546.599 173.313C546.163 173.602 545.707 173.882 545.235 174.153C544.494 174.577 543.71 174.977 542.887 175.354C542.24 175.65 541.57 175.93 540.876 176.193C540.681 176.268 540.483 176.341 540.282 176.414C539.921 176.544 539.555 176.669 539.183 176.789C537.845 177.225 536.437 177.603 534.969 177.916C534.566 178.003 534.158 178.084 533.747 178.159C532.582 178.375 531.383 178.55 530.156 178.684C529.958 178.705 529.759 178.725 529.56 178.744C528.61 178.835 527.645 178.901 526.666 178.939C525.976 178.967 525.281 178.981 524.579 178.981C523.876 178.981 523.18 178.967 522.49 178.939C516.667 178.71 511.33 177.527 507 175.676V151.239C507.046 151.22 507.09 151.201 507.135 151.181C507.09 151.127 507.044 151.072 507 151.018V134.729C507.684 133.897 508.47 133.116 509.344 132.397C508.452 131.595 507.665 130.721 507 129.788V114.788C508.829 112.23 511.566 110.115 514.872 108.699C514.128 106.598 513.709 104.221 513.709 101.706C513.709 93.1334 518.575 86.183 524.579 86.183C530.581 86.183 535.447 93.1334 535.447 101.706C535.447 104.221 535.028 106.598 534.284 108.699C540.466 111.346 544.652 116.44 544.652 122.289C544.652 126.151 542.829 129.681 539.812 132.397C542.108 134.284 543.793 136.598 544.629 139.161C545.018 140.351 545.224 141.595 545.224 142.874C545.224 143.455 545.181 144.028 545.098 144.592C544.922 145.797 544.561 146.962 544.039 148.067C543.931 148.297 543.814 148.525 543.691 148.75C543.574 148.967 543.449 149.183 543.317 149.395C542.944 150.002 542.519 150.587 542.048 151.148C542.039 151.16 542.03 151.17 542.02 151.181C547.041 153.301 550.728 156.315 552.274 159.785C552.358 159.97 552.435 160.158 552.505 160.347C552.816 161.18 553.005 162.037 553.06 162.913C553.072 163.094 553.078 163.276 553.078 163.458Z" fill="#4FC176"/>
<path d="M496 163.275C496 164.126 496.125 164.961 496.368 165.774C496.789 167.193 497.563 168.546 498.64 169.807C499.426 170.731 500.374 171.604 501.465 172.416C501.79 172.66 502.129 172.898 502.479 173.13C502.915 173.419 503.37 173.699 503.843 173.97C504.584 174.394 505.368 174.794 506.191 175.171C506.838 175.467 507.508 175.747 508.201 176.01C508.397 176.085 508.595 176.158 508.795 176.231C509.156 176.361 509.523 176.486 509.895 176.606C511.233 177.042 512.641 177.42 514.109 177.733C514.512 177.82 514.919 177.901 515.33 177.976C516.496 178.192 517.695 178.367 518.922 178.5C519.12 178.522 519.319 178.541 519.518 178.561C520.467 178.652 521.433 178.718 522.412 178.755C523.101 178.784 523.797 178.798 524.499 178.798C525.202 178.798 525.898 178.784 526.588 178.755C532.41 178.527 537.748 177.344 542.078 175.493V151.056C542.032 151.037 541.988 151.018 541.942 150.998C541.988 150.944 542.033 150.889 542.078 150.834V134.546C541.394 133.714 540.608 132.933 539.734 132.214C540.625 131.412 541.413 130.538 542.078 129.605V114.605C540.249 112.047 537.512 109.932 534.205 108.516C534.95 106.415 535.369 104.038 535.369 101.523C535.369 92.9504 530.503 86 524.499 86C518.497 86 513.631 92.9504 513.631 101.523C513.631 104.038 514.05 106.415 514.794 108.516C508.612 111.163 504.426 116.257 504.426 122.106C504.426 125.967 506.249 129.498 509.266 132.214C506.97 134.101 505.285 136.415 504.448 138.978C504.06 140.168 503.854 141.412 503.854 142.691C503.854 143.272 503.896 143.845 503.979 144.409C504.156 145.614 504.517 146.779 505.039 147.884C505.147 148.114 505.263 148.342 505.386 148.567C505.504 148.784 505.629 149 505.761 149.212C506.134 149.819 506.559 150.404 507.03 150.965C507.039 150.977 507.048 150.987 507.057 150.998C502.036 153.118 498.349 156.132 496.804 159.602C496.719 159.787 496.643 159.975 496.573 160.164C496.262 160.997 496.073 161.854 496.018 162.73C496.006 162.911 496 163.093 496 163.275Z" fill="#4FC176"/>
<path d="M709.385 207.629H703.992V143.447H709.385V207.629Z" fill="#4E2F16"/>
<path d="M1198.18 209.306H1194V159.603H1198.18V209.306Z" fill="#4E2F16"/>
<path d="M1224.59 165.134C1224.59 165.986 1224.46 166.82 1224.22 167.634C1223.8 169.052 1223.03 170.406 1221.95 171.667C1221.16 172.59 1220.21 173.463 1219.12 174.276C1218.8 174.52 1218.46 174.757 1218.11 174.99C1217.67 175.279 1217.22 175.559 1216.75 175.83C1216.01 176.253 1215.22 176.654 1214.4 177.031C1213.75 177.327 1213.08 177.607 1212.39 177.869C1212.19 177.945 1211.99 178.017 1211.79 178.09C1211.43 178.22 1211.07 178.345 1210.69 178.466C1209.36 178.902 1207.95 179.28 1206.48 179.593C1206.08 179.679 1205.67 179.76 1205.26 179.835C1204.09 180.052 1202.89 180.227 1201.67 180.36C1201.47 180.382 1201.27 180.401 1201.07 180.42C1200.12 180.511 1199.16 180.577 1198.18 180.615C1197.49 180.643 1196.79 180.657 1196.09 180.657C1195.39 180.657 1194.69 180.643 1194 180.615C1188.18 180.386 1182.84 179.204 1178.51 177.353V152.916C1178.56 152.897 1178.6 152.877 1178.65 152.858C1178.6 152.803 1178.56 152.749 1178.51 152.694V136.405C1179.2 135.573 1179.98 134.792 1180.85 134.074C1179.96 133.271 1179.18 132.397 1178.51 131.465V116.465C1180.34 113.907 1183.08 111.792 1186.38 110.376C1185.64 108.275 1185.22 105.898 1185.22 103.382C1185.22 94.8099 1190.09 87.8596 1196.09 87.8596C1202.09 87.8596 1206.96 94.8099 1206.96 103.382C1206.96 105.898 1206.54 108.275 1205.79 110.376C1211.98 113.022 1216.16 118.116 1216.16 123.966C1216.16 127.827 1214.34 131.358 1211.32 134.074C1213.62 135.96 1215.3 138.274 1216.14 140.838C1216.53 142.027 1216.73 143.271 1216.73 144.551C1216.73 145.131 1216.69 145.705 1216.61 146.268C1216.43 147.474 1216.07 148.638 1215.55 149.744C1215.44 149.974 1215.33 150.201 1215.2 150.427C1215.09 150.644 1214.96 150.859 1214.83 151.072C1214.45 151.679 1214.03 152.264 1213.56 152.825C1213.55 152.836 1213.54 152.847 1213.53 152.858C1218.55 154.977 1222.24 157.992 1223.79 161.461C1223.87 161.647 1223.95 161.834 1224.02 162.023C1224.33 162.857 1224.52 163.714 1224.57 164.589C1224.58 164.77 1224.59 164.952 1224.59 165.134Z" fill="#4FC176"/>
<path d="M1167.51 164.951C1167.51 165.803 1167.64 166.637 1167.88 167.451C1168.3 168.869 1169.07 170.223 1170.15 171.484C1170.94 172.407 1171.89 173.28 1172.98 174.093C1173.3 174.336 1173.64 174.574 1173.99 174.807C1174.43 175.096 1174.88 175.376 1175.35 175.647C1176.09 176.07 1176.88 176.471 1177.7 176.848C1178.35 177.143 1179.02 177.423 1179.71 177.686C1179.91 177.762 1180.11 177.834 1180.31 177.907C1180.67 178.037 1181.03 178.162 1181.41 178.283C1182.74 178.719 1184.15 179.097 1185.62 179.41C1186.02 179.496 1186.43 179.577 1186.84 179.652C1188.01 179.869 1189.21 180.044 1190.43 180.177C1190.63 180.199 1190.83 180.218 1191.03 180.237C1191.98 180.328 1192.94 180.394 1193.92 180.432C1194.61 180.46 1195.31 180.474 1196.01 180.474C1196.71 180.474 1197.41 180.46 1198.1 180.432C1203.92 180.203 1209.26 179.021 1213.59 177.17V152.733C1213.54 152.714 1213.5 152.694 1213.45 152.675C1213.5 152.62 1213.54 152.566 1213.59 152.511V136.222C1212.9 135.39 1212.12 134.609 1211.25 133.891C1212.14 133.088 1212.92 132.214 1213.59 131.282V116.282C1211.76 113.724 1209.02 111.609 1205.72 110.193C1206.46 108.092 1206.88 105.715 1206.88 103.199C1206.88 94.6269 1202.01 87.6765 1196.01 87.6765C1190.01 87.6765 1185.14 94.6269 1185.14 103.199C1185.14 105.715 1185.56 108.092 1186.31 110.193C1180.12 112.839 1175.94 117.933 1175.94 123.783C1175.94 127.644 1177.76 131.175 1180.78 133.891C1178.48 135.777 1176.8 138.091 1175.96 140.655C1175.57 141.844 1175.37 143.088 1175.37 144.368C1175.37 144.948 1175.41 145.522 1175.49 146.085C1175.67 147.291 1176.03 148.455 1176.55 149.561C1176.66 149.79 1176.77 150.018 1176.9 150.244C1177.01 150.461 1177.14 150.676 1177.27 150.889C1177.65 151.496 1178.07 152.081 1178.54 152.642C1178.55 152.653 1178.56 152.664 1178.57 152.675C1173.55 154.794 1169.86 157.809 1168.31 161.278C1168.23 161.464 1168.15 161.651 1168.08 161.84C1167.77 162.674 1167.58 163.531 1167.53 164.406C1167.52 164.587 1167.51 164.769 1167.51 164.951Z" fill="#4FC176"/>
<path d="M987.177 211.306H983.001V161.603H987.177V211.306Z" fill="#4E2F16"/>
<path d="M1013.59 167.134C1013.59 167.986 1013.46 168.82 1013.22 169.634C1012.8 171.052 1012.03 172.406 1010.95 173.667C1010.16 174.59 1009.21 175.463 1008.12 176.276C1007.8 176.52 1007.46 176.757 1007.11 176.99C1006.67 177.279 1006.22 177.559 1005.75 177.83C1005 178.253 1004.22 178.654 1003.4 179.031C1002.75 179.327 1002.08 179.607 1001.39 179.869C1001.19 179.945 1000.99 180.017 1000.79 180.09C1000.43 180.22 1000.07 180.345 999.694 180.466C998.356 180.902 996.948 181.28 995.48 181.593C995.077 181.679 994.669 181.76 994.258 181.835C993.093 182.052 991.894 182.227 990.667 182.36C990.469 182.382 990.27 182.401 990.071 182.42C989.121 182.511 988.156 182.577 987.177 182.615C986.487 182.643 985.792 182.657 985.09 182.657C984.387 182.657 983.691 182.643 983.001 182.615C977.178 182.386 971.841 181.204 967.511 179.353V154.916C967.556 154.897 967.601 154.877 967.646 154.858C967.601 154.803 967.555 154.749 967.511 154.694V138.405C968.195 137.573 968.981 136.792 969.855 136.074C968.963 135.271 968.176 134.397 967.511 133.465V118.465C969.34 115.907 972.077 113.792 975.383 112.376C974.639 110.275 974.22 107.898 974.22 105.382C974.22 96.8099 979.086 89.8596 985.09 89.8596C991.092 89.8596 995.958 96.8099 995.958 105.382C995.958 107.898 995.539 110.275 994.795 112.376C1000.98 115.022 1005.16 120.116 1005.16 125.966C1005.16 129.827 1003.34 133.358 1000.32 136.074C1002.62 137.96 1004.3 140.274 1005.14 142.838C1005.53 144.027 1005.73 145.271 1005.73 146.551C1005.73 147.131 1005.69 147.705 1005.61 148.268C1005.43 149.474 1005.07 150.638 1004.55 151.744C1004.44 151.974 1004.33 152.201 1004.2 152.427C1004.09 152.644 1003.96 152.859 1003.83 153.072C1003.45 153.679 1003.03 154.264 1002.56 154.825C1002.55 154.836 1002.54 154.847 1002.53 154.858C1007.55 156.977 1011.24 159.992 1012.79 163.461C1012.87 163.647 1012.95 163.834 1013.02 164.023C1013.33 164.857 1013.52 165.714 1013.57 166.589C1013.58 166.77 1013.59 166.952 1013.59 167.134Z" fill="#4FC176"/>
<path d="M956.511 166.951C956.511 167.803 956.636 168.637 956.879 169.451C957.3 170.869 958.074 172.223 959.151 173.484C959.937 174.407 960.885 175.28 961.976 176.093C962.301 176.336 962.64 176.574 962.99 176.807C963.426 177.096 963.881 177.376 964.354 177.647C965.095 178.07 965.879 178.471 966.702 178.848C967.349 179.143 968.019 179.423 968.712 179.686C968.908 179.762 969.106 179.834 969.306 179.907C969.667 180.037 970.034 180.162 970.406 180.283C971.744 180.719 973.152 181.097 974.62 181.41C975.023 181.496 975.43 181.577 975.841 181.652C977.007 181.869 978.206 182.044 979.433 182.177C979.631 182.199 979.83 182.218 980.029 182.237C980.978 182.328 981.944 182.394 982.923 182.432C983.612 182.46 984.308 182.474 985.01 182.474C985.713 182.474 986.409 182.46 987.099 182.432C992.921 182.203 998.259 181.021 1002.59 179.17V154.733C1002.54 154.714 1002.5 154.694 1002.45 154.675C1002.5 154.62 1002.54 154.566 1002.59 154.511V138.222C1001.9 137.39 1001.12 136.609 1000.25 135.891C1001.14 135.088 1001.92 134.214 1002.59 133.282V118.282C1000.76 115.724 998.023 113.609 994.716 112.193C995.461 110.092 995.88 107.715 995.88 105.199C995.88 96.6269 991.014 89.6765 985.01 89.6765C979.008 89.6765 974.142 96.6269 974.142 105.199C974.142 107.715 974.561 110.092 975.305 112.193C969.123 114.839 964.937 119.933 964.937 125.783C964.937 129.644 966.76 133.175 969.777 135.891C967.481 137.777 965.796 140.091 964.959 142.655C964.571 143.844 964.365 145.088 964.365 146.368C964.365 146.948 964.407 147.522 964.49 148.085C964.667 149.291 965.028 150.455 965.55 151.561C965.658 151.79 965.774 152.018 965.897 152.244C966.015 152.461 966.14 152.676 966.272 152.889C966.645 153.496 967.07 154.081 967.541 154.642C967.55 154.653 967.559 154.664 967.568 154.675C962.547 156.794 958.86 159.809 957.315 163.278C957.23 163.464 957.154 163.651 957.084 163.84C956.773 164.674 956.584 165.531 956.529 166.406C956.517 166.587 956.511 166.769 956.511 166.951Z" fill="#4FC176"/>
<path d="M1397.44 217.428H1406V143.677H1397.44V217.428Z" fill="#4E2F16"/>
<path d="M1374.67 132.611C1372.05 129.508 1370.54 125.83 1370.54 121.883C1370.54 116.669 1373.19 111.92 1377.53 108.355C1373.63 104.848 1371.28 100.288 1371.28 95.3018C1371.28 87.747 1376.68 81.17 1384.67 77.7529C1383.7 75.0392 1383.16 71.9704 1383.16 68.7217C1383.16 57.6508 1389.45 48.6765 1397.2 48.6765C1404.95 48.6765 1411.23 57.6508 1411.23 68.7217C1411.23 71.9704 1410.69 75.0392 1409.73 77.7529C1417.71 81.17 1423.12 87.747 1423.12 95.3018C1423.12 100.288 1420.77 104.848 1416.87 108.355C1421.21 111.92 1423.86 116.669 1423.86 121.883C1423.86 125.83 1422.34 129.508 1419.72 132.611C1428.41 136.278 1434 142.015 1434 148.464C1434 159.534 1417.52 168.508 1397.2 168.508C1376.87 168.508 1360.4 159.534 1360.4 148.464C1360.4 142.015 1365.99 136.278 1374.67 132.611Z" fill="#4FC176"/>
<path d="M1285.93 220.693H1291.96V168.723H1285.93V220.693Z" fill="#4E2F16"/>
<path d="M1314 177.149L1303.18 158.837H1312.4L1301.78 140.864H1309.99L1298.28 121.026H1303.58L1288.98 96.3034L1288.98 96.185L1288.95 96.2454L1288.91 96.185L1288.91 96.3137L1274.31 121.026H1279.62L1267.9 140.864H1276.11L1265.5 158.837H1274.71L1263.9 177.149H1286.12L1286.12 177.192L1314 177.149Z" fill="#328E53"/>
<path d="M1084.17 222.693H1092.73V148.941H1084.17V222.693Z" fill="#4E2F16"/>
<path d="M1124 160.898L1108.65 134.912H1121.73L1106.66 109.405H1118.32L1101.69 81.2524H1109.22L1088.5 46.168L1088.5 46L1088.45 46.0856L1088.4 46L1088.39 46.1826L1067.68 81.2524H1075.21L1058.58 109.405H1070.24L1055.17 134.912H1068.25L1052.9 160.898H1084.44L1084.43 160.96L1124 160.898Z" fill="#328E53"/>
<path d="M957 197.329C957 197.787 956.917 198.236 956.755 198.673C956.475 199.436 955.96 200.164 955.243 200.842C954.719 201.338 954.088 201.808 953.362 202.245C953.145 202.376 952.92 202.504 952.686 202.629C952.396 202.784 952.093 202.935 951.779 203.081C951.285 203.308 950.763 203.524 950.215 203.726C949.785 203.885 949.338 204.036 948.877 204.177C948.747 204.218 948.615 204.257 948.481 204.296C948.241 204.366 947.997 204.433 947.749 204.498C946.859 204.733 945.921 204.936 944.944 205.104C944.676 205.151 944.404 205.194 944.131 205.235C943.355 205.351 942.557 205.445 941.74 205.517C941.608 205.528 941.475 205.539 941.343 205.549C940.711 205.598 940.068 205.634 939.416 205.654C938.957 205.669 938.494 205.677 938.026 205.677C937.559 205.677 937.095 205.669 936.636 205.654C932.76 205.531 929.206 204.895 926.323 203.9V190.759C926.354 190.748 926.383 190.738 926.413 190.728C926.383 190.698 926.353 190.669 926.323 190.639V181.88C926.779 181.433 927.302 181.013 927.884 180.627C927.29 180.195 926.766 179.725 926.323 179.224V171.157C927.541 169.782 929.363 168.645 931.564 167.883C931.069 166.753 930.79 165.475 930.79 164.122C930.79 159.512 934.03 155.775 938.026 155.775C942.022 155.775 945.262 159.512 945.262 164.122C945.262 165.475 944.983 166.753 944.488 167.883C948.603 169.306 951.391 172.045 951.391 175.191C951.391 177.267 950.177 179.166 948.168 180.627C949.697 181.641 950.818 182.885 951.375 184.264C951.634 184.903 951.771 185.572 951.771 186.26C951.771 186.573 951.743 186.881 951.688 187.184C951.57 187.832 951.33 188.458 950.982 189.053C950.91 189.177 950.833 189.299 950.751 189.42C950.673 189.537 950.59 189.653 950.502 189.767C950.253 190.093 949.97 190.408 949.657 190.71C949.651 190.716 949.645 190.721 949.639 190.728C952.981 191.867 955.436 193.488 956.465 195.354C956.521 195.454 956.572 195.555 956.619 195.656C956.826 196.104 956.951 196.565 956.988 197.036C956.996 197.133 957 197.231 957 197.329Z" fill="#4FC176"/>
<path d="M919 197.231C919 197.689 919.083 198.137 919.245 198.575C919.525 199.338 920.04 200.065 920.757 200.744C921.281 201.24 921.912 201.71 922.638 202.147C922.855 202.278 923.08 202.406 923.314 202.53C923.604 202.686 923.907 202.836 924.221 202.982C924.715 203.21 925.237 203.425 925.785 203.628C926.215 203.787 926.662 203.938 927.123 204.079C927.253 204.119 927.385 204.159 927.519 204.198C927.759 204.268 928.003 204.335 928.251 204.4C929.141 204.634 930.079 204.837 931.056 205.006C931.324 205.052 931.596 205.096 931.869 205.136C932.645 205.252 933.443 205.347 934.26 205.418C934.392 205.43 934.525 205.44 934.657 205.451C935.289 205.5 935.932 205.535 936.584 205.555C937.043 205.571 937.506 205.578 937.974 205.578C938.441 205.578 938.905 205.571 939.364 205.555C943.24 205.432 946.794 204.796 949.677 203.801V190.66C949.646 190.65 949.617 190.64 949.587 190.629C949.617 190.6 949.647 190.57 949.677 190.541V181.782C949.221 181.334 948.698 180.914 948.116 180.528C948.71 180.097 949.234 179.626 949.677 179.125V171.059C948.459 169.683 946.637 168.546 944.436 167.785C944.931 166.655 945.21 165.377 945.21 164.024C945.21 159.414 941.97 155.677 937.974 155.677C933.978 155.677 930.738 159.414 930.738 164.024C930.738 165.377 931.017 166.655 931.512 167.785C927.397 169.208 924.609 171.947 924.609 175.093C924.609 177.169 925.823 179.068 927.832 180.528C926.303 181.542 925.182 182.787 924.625 184.165C924.366 184.805 924.229 185.474 924.229 186.162C924.229 186.474 924.257 186.783 924.312 187.086C924.43 187.734 924.67 188.36 925.018 188.954C925.09 189.078 925.167 189.2 925.249 189.322C925.327 189.439 925.41 189.554 925.498 189.669C925.747 189.995 926.03 190.31 926.343 190.611C926.349 190.618 926.355 190.623 926.361 190.629C923.019 191.769 920.564 193.39 919.535 195.255C919.479 195.355 919.428 195.456 919.381 195.558C919.174 196.006 919.049 196.467 919.012 196.938C919.004 197.035 919 197.133 919 197.231Z" fill="#4FC176"/>
<path d="M729.212 134.737C731.832 131.634 733.349 127.955 733.349 124.008C733.349 118.794 730.7 114.045 726.36 110.48C730.255 106.973 732.611 102.413 732.611 97.427C732.611 89.8722 727.205 83.2952 719.221 79.878C720.183 77.1644 720.725 74.0955 720.725 70.8469C720.725 59.7759 714.44 50.8017 706.688 50.8017C698.937 50.8017 692.652 59.7759 692.652 70.8469C692.652 74.0955 693.194 77.1644 694.156 79.878C686.172 83.2952 680.766 89.8722 680.766 97.427C680.766 102.413 683.121 106.973 687.016 110.48C682.676 114.045 680.027 118.794 680.027 124.008C680.027 127.955 681.546 131.634 684.165 134.737C675.478 138.403 669.886 144.14 669.886 150.589C669.886 161.659 686.363 170.634 706.688 170.634C727.014 170.634 743.49 161.659 743.49 150.589C743.49 144.14 737.899 138.403 729.212 134.737Z" fill="#4FC176"/>
<path d="M890.815 207.629H886.782V159.631H890.815V207.629Z" fill="#4E2F16"/>
<path d="M614.421 219.016H620.453V167.047H614.421V219.016Z" fill="#4E2F16"/>
<path d="M642.489 175.472L631.673 157.161H640.886L630.271 139.187H638.483L626.766 119.349H632.074L617.471 94.6269L617.473 94.5085L617.437 94.5688L617.401 94.5085L617.397 94.6371L602.801 119.349H608.109L596.391 139.187H604.604L593.988 157.161H603.201L592.385 175.472H614.61L614.608 175.516L642.489 175.472Z" fill="#328E53"/>
<path d="M798.348 219.016H791.963V164.006H798.348V219.016Z" fill="#4E2F16"/>
<path d="M821.672 172.925L810.223 153.541H819.976L808.739 134.517H817.432L805.029 113.518H810.648L795.191 87.3486L795.193 87.2234L795.155 87.2883L795.117 87.2234L795.113 87.36L779.663 113.518H785.281L772.877 134.517H781.57L770.333 153.541H780.086L768.637 172.925H792.162L792.161 172.97L821.672 172.925Z" fill="#328E53"/>
<path d="M1440 206V210H0V206H1440Z" fill="#E3E4E1"/>
<path d="M0 234H1440V210H0V234Z" fill="#CBCAC8"/>
<path d="M0 285H1440V239H0V285Z" fill="#ADADAD"/>
<path d="M93.2657 256.565V261.207H62V256.565H93.2657Z" fill="white"/>
<path d="M846.266 256.565V261.207H815V256.565H846.266Z" fill="white"/>
<path d="M38.3406 256.566V261.208H19V256.566H38.3406Z" fill="white"/>
<path d="M791.341 256.566V261.208H772V256.566H791.341Z" fill="white"/>
<path d="M148.265 256.566V261.208H117V256.566H148.265Z" fill="white"/>
<path d="M901.265 256.566V261.208H870V256.566H901.265Z" fill="white"/>
<path d="M204.265 256.566V261.208H173V256.566H204.265Z" fill="white"/>
<path d="M957.265 256.566V261.208H926V256.566H957.265Z" fill="white"/>
<path d="M259.265 256.566V261.208H228V256.566H259.265Z" fill="white"/>
<path d="M1012.27 256.566V261.208H981V256.566H1012.27Z" fill="white"/>
<path d="M314.265 256.566V261.208H283V256.566H314.265Z" fill="white"/>
<path d="M1067.27 256.566V261.208H1036V256.566H1067.27Z" fill="white"/>
<path d="M369.265 256.566V261.208H338V256.566H369.265Z" fill="white"/>
<path d="M1122.27 256.566V261.208H1091V256.566H1122.27Z" fill="white"/>
<path d="M393 256.566H417.099V261.208H393V256.566Z" fill="white"/>
<path d="M1146 256.566H1170.1V261.208H1146V256.566Z" fill="white"/>
<path d="M470.266 256.571V261.213H439V256.571H470.266Z" fill="white"/>
<path d="M1223.27 256.571V261.213H1192V256.571H1223.27Z" fill="white"/>
<path d="M415.341 256.571V261.213H396V256.571H415.341Z" fill="white"/>
<path d="M1168.34 256.571V261.213H1149V256.571H1168.34Z" fill="white"/>
<path d="M525.265 256.571V261.213H494V256.571H525.265Z" fill="white"/>
<path d="M1278.27 256.571V261.213H1247V256.571H1278.27Z" fill="white"/>
<path d="M581.265 256.571V261.213H550V256.571H581.265Z" fill="white"/>
<path d="M1334.27 256.571V261.213H1303V256.571H1334.27Z" fill="white"/>
<path d="M636.265 256.571V261.213H605V256.571H636.265Z" fill="white"/>
<path d="M1389.27 256.571V261.213H1358V256.571H1389.27Z" fill="white"/>
<path d="M691.265 256.571V261.213H660V256.571H691.265Z" fill="white"/>
<path d="M1444.27 256.571V261.213H1413V256.571H1444.27Z" fill="white"/>
<path d="M746.265 256.571V261.213H715V256.571H746.265Z" fill="white"/>
<path d="M770 256.57H794.099V261.212H770V256.57Z" fill="white"/>
<path d="M0.399933 238.94H1440.4V233.94H0.399933V238.94Z" fill="#CBCAC8"/>
<path d="M796.069 253.101C724.771 253.101 666.972 249.352 666.972 244.728C666.972 242.667 678.463 240.778 697.519 239.32H894.617C898.544 239.62 902.15 239.939 905.4 240.274V249.182C882.551 251.536 842.127 253.101 796.069 253.101Z" fill="#989797"/>
<path d="M1402.4 238.94H689.4C721.819 238.225 760.295 237.609 803.342 237.119C805.384 237.096 807.431 237.073 809.494 237.051C818.335 236.953 827.361 236.861 836.564 236.774C838.779 236.754 841.011 236.734 843.247 236.712C844.791 236.699 846.344 236.685 847.9 236.672C858.293 236.581 868.892 236.497 879.689 236.421H879.693C881.237 236.409 882.786 236.398 884.342 236.387C886.562 236.372 888.789 236.358 891.025 236.342C899.932 236.284 908.966 236.231 918.112 236.182C920.158 236.172 922.209 236.161 924.268 236.15C942.089 236.061 960.331 235.99 978.931 235.94H1112.87C1130.1 235.986 1147.02 236.051 1163.58 236.131C1258.17 236.589 1341.1 237.588 1402.4 238.94Z" fill="#B1AFAD"/>
<path d="M659.164 150.695H658.465C657.76 150.695 657.189 150.124 657.189 149.419V139.244C657.189 138.54 657.76 137.968 658.465 137.968H659.164C659.868 137.968 660.44 138.54 660.44 139.244V149.419C660.44 150.124 659.868 150.695 659.164 150.695Z" fill="#213661"/>
<path d="M655.602 217.012H660.414V151.406H655.602V217.012Z" fill="#213661"/>
<path d="M597.267 219.398C557.416 219.398 525.111 217.967 525.111 216.202C525.111 214.436 557.416 213.005 597.267 213.005C621.238 213.005 642.48 213.523 655.602 214.32V217.012H659.51L659.518 217.819C646.982 218.764 623.795 219.398 597.267 219.398Z" fill="#B1AFAD"/>
<path d="M659.51 217.012H655.602V214.32C656.991 214.404 658.287 214.492 659.487 214.582L659.494 215.275L659.51 217.012Z" fill="#223359"/>
<path d="M659.518 217.819L659.51 217.012L659.494 215.275L659.487 214.582C665.799 215.056 669.422 215.611 669.422 216.201C669.422 216.791 665.813 217.344 659.518 217.819Z" fill="#D69219"/>
<path d="M659.075 139.161V149.396H528.799V139.161H659.075Z" fill="#EAF8FA"/>
<path d="M659.075 144.592V148.75H528.799V144.592H659.075Z" fill="#AFD8E5"/>
<path d="M528.711 150.695H528.012C527.307 150.695 526.736 150.124 526.736 149.419V139.244C526.736 138.54 527.307 137.968 528.012 137.968H528.711C529.416 137.968 529.987 138.54 529.987 139.244V149.419C529.987 150.124 529.416 150.695 528.711 150.695Z" fill="#213661"/>
<path d="M547.347 150.695H546.648C545.943 150.695 545.372 150.124 545.372 149.419V139.244C545.372 138.54 545.943 137.968 546.648 137.968H547.347C548.052 137.968 548.623 138.54 548.623 139.244V149.419C548.623 150.124 548.052 150.695 547.347 150.695Z" fill="#213661"/>
<path d="M565.983 150.695H565.284C564.579 150.695 564.008 150.124 564.008 149.419V139.244C564.008 138.54 564.579 137.968 565.284 137.968H565.983C566.688 137.968 567.259 138.54 567.259 139.244V149.419C567.259 150.124 566.688 150.695 565.983 150.695Z" fill="#213661"/>
<path d="M584.619 150.695H583.92C583.216 150.695 582.644 150.124 582.644 149.419V139.244C582.644 138.54 583.216 137.968 583.92 137.968H584.619C585.324 137.968 585.896 138.54 585.896 139.244V149.419C585.896 150.124 585.324 150.695 584.619 150.695Z" fill="#213661"/>
<path d="M603.255 150.695H602.557C601.852 150.695 601.28 150.124 601.28 149.419V139.244C601.28 138.54 601.852 137.968 602.557 137.968H603.255C603.96 137.968 604.532 138.54 604.532 139.244V149.419C604.532 150.124 603.96 150.695 603.255 150.695Z" fill="#213661"/>
<path d="M621.892 150.695H621.193C620.488 150.695 619.917 150.124 619.917 149.419V139.244C619.917 138.54 620.488 137.968 621.193 137.968H621.892C622.596 137.968 623.168 138.54 623.168 139.244V149.419C623.168 150.124 622.596 150.695 621.892 150.695Z" fill="#213661"/>
<path d="M655.714 159.785V212.021H533.748V159.785H655.714Z" fill="#AFD8E5"/>
<path d="M640.528 150.695H639.829C639.124 150.695 638.553 150.124 638.553 149.419V139.244C638.553 138.54 639.124 137.968 639.829 137.968H640.528C641.232 137.968 641.804 138.54 641.804 139.244V149.419C641.804 150.124 641.232 150.695 640.528 150.695Z" fill="#213661"/>
<path d="M551.398 159.785L533.748 177.434V159.785H551.398Z" fill="#FAFCFB"/>
<path d="M556.188 159.785L533.748 182.225V160.972L534.935 159.785H556.188Z" fill="#E3F6FB"/>
<path d="M585.663 159.785L533.748 211.699V190.448L564.413 159.785H585.663Z" fill="#FAFCFB"/>
<path d="M590.452 159.785L538.216 212.021H533.748V195.239L569.201 159.785H590.452Z" fill="#E3F6FB"/>
<path d="M622.537 159.785L570.301 212.021H549.052L601.286 159.785H622.537Z" fill="#FAFCFB"/>
<path d="M627.326 159.785L575.089 212.021H553.839L606.077 159.785H627.326Z" fill="#E3F6FB"/>
<path d="M655.714 159.785V169.903L613.599 212.021H592.347L644.583 159.785H655.714Z" fill="#FAFCFB"/>
<path d="M655.714 159.785V174.694L618.386 212.021H597.136L649.372 159.785H655.714Z" fill="#E3F6FB"/>
<path d="M629.088 212.021L655.714 185.394V206.643L650.337 212.021H629.088Z" fill="#FAFCFB"/>
<path d="M655.714 190.182V211.433L655.127 212.021H633.877L655.714 190.182Z" fill="#E3F6FB"/>
<path d="M534.969 217.012H530.157V151.406H534.969V217.012Z" fill="#213661"/>
<path d="M566.33 217.012H561.518V151.406H566.33V217.012Z" fill="#213661"/>
<path d="M526.12 150.563V148.652C526.12 148.329 526.382 148.067 526.705 148.067H662.691C663.015 148.067 663.276 148.329 663.276 148.652V150.563C663.276 150.887 663.015 151.148 662.691 151.148H526.705C526.382 151.148 526.12 150.887 526.12 150.563Z" fill="#213661"/>
<path d="M597.691 217.012H592.879V151.406H597.691V217.012Z" fill="#213661"/>
<path d="M629.053 217.012H624.24V151.406H629.053V217.012Z" fill="#213661"/>
<path d="M642.379 204.161H572.796V200.072H642.379V204.161Z" fill="#EE4B45"/>
<path d="M583.672 217.347H580.038V204.141H583.672V217.347Z" fill="#EE4B45"/>
<path d="M633.948 217.347H630.314V204.141H633.948V217.347Z" fill="#EE4B45"/>
<rect x="538.7" y="170" width="19" height="12" fill="white"/>
<path d="M557.625 169.99H538.648V165.958H557.625V169.99Z" fill="#EE4B45"/>
<path d="M547.159 168.65H540.282V167.448H547.159V168.65Z" fill="#E4E1E0"/>
<path d="M550.123 168.65H547.951V167.448H550.123V168.65Z" fill="#E4E1E0"/>
<path d="M547.613 173.313H540.282V172.112H547.613V173.313Z" fill="#B3ACAC"/>
<path d="M550.027 172.609H548.852V171.433H550.027V172.609Z" fill="#B3ACAC"/>
<path d="M552.34 172.609H551.165V171.433H552.34V172.609Z" fill="#B3ACAC"/>
<path d="M554.653 172.609H553.478V171.433H554.653V172.609Z" fill="#B3ACAC"/>
<path d="M556.966 172.609H555.791V171.433H556.966V172.609Z" fill="#B3ACAC"/>
<path d="M547.613 175.354H540.282V174.153H547.613V175.354Z" fill="#B3ACAC"/>
<path d="M550.027 174.65H548.852V173.474H550.027V174.65Z" fill="#B3ACAC"/>
<path d="M552.34 174.65H551.165V173.474H552.34V174.65Z" fill="#B3ACAC"/>
<path d="M554.653 174.65H553.478V173.474H554.653V174.65Z" fill="#B3ACAC"/>
<path d="M556.966 174.65H555.791V173.474H556.966V174.65Z" fill="#B3ACAC"/>
<path d="M547.613 177.395H540.282V176.193H547.613V177.395Z" fill="#B3ACAC"/>
<path d="M550.027 176.689H548.852V175.515H550.027V176.689Z" fill="#B3ACAC"/>
<path d="M552.34 176.689H551.165V175.515H552.34V176.689Z" fill="#B3ACAC"/>
<path d="M554.653 176.689H553.478V175.515H554.653V176.689Z" fill="#B3ACAC"/>
<path d="M556.966 176.689H555.791V175.515H556.966V176.689Z" fill="#B3ACAC"/>
<path d="M547.613 179.436H540.282V178.234H547.613V179.436Z" fill="#B3ACAC"/>
<path d="M550.027 178.73H548.852V177.556H550.027V178.73Z" fill="#B3ACAC"/>
<path d="M552.34 178.73H551.165V177.556H552.34V178.73Z" fill="#B3ACAC"/>
<path d="M554.653 178.73H553.478V177.556H554.653V178.73Z" fill="#B3ACAC"/>
<path d="M556.966 178.73H555.791V177.556H556.966V178.73Z" fill="#B3ACAC"/>
<path d="M547.613 181.477H540.282V180.275H547.613V181.477Z" fill="#B3ACAC"/>
<path d="M550.027 180.771H548.852V179.597H550.027V180.771Z" fill="#B3ACAC"/>
<path d="M552.34 180.771H551.165V179.597H552.34V180.771Z" fill="#B3ACAC"/>
<path d="M903.51 134.976C904.2 135.543 904.832 136.148 905.4 136.789V176.928C903.067 177.891 900.443 178.656 897.613 179.176C895.455 179.574 893.176 179.829 890.815 179.922C890.149 179.948 889.478 179.962 888.799 179.962C888.121 179.962 887.448 179.948 886.782 179.922C886.614 179.915 886.446 179.908 886.279 179.9C885.09 179.841 883.922 179.741 882.781 179.602C870.85 178.153 861.839 172.484 861.303 165.621C861.285 165.405 861.277 165.189 861.277 164.972C861.277 163.665 861.584 162.397 862.161 161.189C863.093 159.234 864.734 157.434 866.923 155.876C868.374 154.842 870.066 153.913 871.955 153.117C870.699 151.63 869.782 149.965 869.284 148.183C869.006 147.186 868.86 146.151 868.86 145.093C868.86 144.709 868.879 144.328 868.917 143.951C869.263 140.503 871.161 137.38 874.087 134.976C871.174 132.353 869.413 128.943 869.413 125.215C869.413 119.564 873.456 114.646 879.425 112.09C878.707 110.061 878.302 107.766 878.302 105.336C878.302 97.0571 883.002 90.3458 888.799 90.3458C892.494 90.3458 895.744 93.0731 897.613 97.1949C898.677 99.5386 899.295 102.334 899.295 105.336C899.295 107.766 898.89 110.061 898.172 112.09C901.147 113.364 903.645 115.224 905.4 117.47V132.958C904.842 133.671 904.209 134.346 903.51 134.976Z" fill="#4FC176"/>
<path d="M873.89 134.63C873.2 135.197 872.568 135.802 872 136.443V176.583C874.333 177.546 876.957 178.31 879.787 178.831C881.945 179.228 884.224 179.483 886.585 179.576C887.251 179.602 887.922 179.616 888.601 179.616C889.279 179.616 889.952 179.602 890.618 179.576C890.786 179.569 890.954 179.563 891.121 179.555C892.31 179.495 893.478 179.395 894.619 179.256C906.55 177.807 915.561 172.139 916.097 165.275C916.115 165.06 916.123 164.843 916.123 164.626C916.123 163.319 915.816 162.051 915.239 160.843C914.307 158.888 912.666 157.088 910.477 155.53C909.026 154.496 907.333 153.568 905.445 152.771C906.701 151.284 907.618 149.619 908.116 147.837C908.394 146.84 908.54 145.806 908.54 144.747C908.54 144.363 908.521 143.982 908.483 143.605C908.137 140.157 906.238 137.034 903.313 134.63C906.226 132.007 907.987 128.597 907.987 124.869C907.987 119.219 903.944 114.3 897.975 111.745C898.693 109.715 899.098 107.42 899.098 104.99C899.098 96.7113 894.398 90 888.601 90C884.906 90 881.656 92.7273 879.787 96.8491C878.723 99.1928 878.105 101.988 878.105 104.99C878.105 107.42 878.51 109.715 879.228 111.745C876.253 113.018 873.755 114.878 872 117.124V132.612C872.558 133.325 873.191 134 873.89 134.63Z" fill="#4FC176"/>
<path d="M554.653 180.771H553.478V179.597H554.653V180.771Z" fill="#B3ACAC"/>
<path d="M556.966 180.771H555.791V179.597H556.966V180.771Z" fill="#B3ACAC"/>
<path d="M651.439 166.894H631.19V163.313H651.439V166.894Z" fill="#EE4B45"/>
<path d="M651.439 166.894H631.19V174.862H651.439V166.894Z" fill="#F1EBEC"/>
<path d="M642.176 168.926H632.688V168.096H642.176V168.926Z" fill="#BAB5B4"/>
<path d="M642.725 168.926H644.927V168.096H642.725V168.926Z" fill="#BAB5B4"/>
<path d="M645.559 168.926H647.762V168.096H645.559V168.926Z" fill="#BAB5B4"/>
<path d="M634.091 170.573H636.292V169.745H634.091V170.573Z" fill="#BAB5B4"/>
<path d="M636.925 170.573H639.126V169.745H636.925V170.573Z" fill="#BAB5B4"/>
<path d="M643.142 172.331H645.345V171.502H643.142V172.331Z" fill="#BAB5B4"/>
<path d="M645.977 172.331H648.179V171.502H645.977V172.331Z" fill="#BAB5B4"/>
<path d="M643.142 174.023H645.345V173.194H643.142V174.023Z" fill="#BAB5B4"/>
<path d="M645.977 174.023H648.179V173.194H645.977V174.023Z" fill="#BAB5B4"/>
<path d="M649.33 170.585H639.842V169.755H649.33V170.585Z" fill="#BAB5B4"/>
<path d="M642.072 172.399H632.585V171.569H642.072V172.399Z" fill="#BAB5B4"/>
<path d="M642.072 174.006H632.585V173.177H642.072V174.006Z" fill="#BAB5B4"/>
<path fill-rule="evenodd" clip-rule="evenodd" d="M908.573 158C922.438 158 933.679 169.24 933.679 183.105V238.197H913.309C913.405 237.513 913.455 236.815 913.455 236.105C913.455 227.632 906.43 220.764 897.764 220.764C889.099 220.764 882.073 227.632 882.073 236.105C882.073 236.815 882.123 237.513 882.219 238.197H766.861C766.957 237.513 767.007 236.815 767.007 236.105C767.007 227.632 759.982 220.764 751.316 220.764C742.65 220.764 735.625 227.632 735.625 236.105C735.625 236.795 735.672 237.474 735.763 238.14H719.114C717.699 238.14 716.283 238.081 714.874 237.968C714.617 237.947 714.361 237.926 714.106 237.905C713.675 237.871 713.247 237.835 712.822 237.799C712.597 237.78 712.372 237.762 712.148 237.742C711.974 237.727 711.798 237.712 711.625 237.696C710.91 237.634 710.205 237.572 709.509 237.508C709.116 237.471 708.726 237.435 708.341 237.398C708.151 237.381 707.964 237.363 707.776 237.345C707.62 237.33 707.465 237.314 707.31 237.299C706.589 237.229 705.878 237.158 705.177 237.085C704.969 237.063 704.762 237.041 704.555 237.02C703.556 236.914 702.579 236.807 701.623 236.696C701.432 236.675 701.241 236.653 701.052 236.63C700.673 236.586 700.298 236.541 699.927 236.496C699.633 236.461 699.342 236.425 699.053 236.389C698.733 236.349 698.416 236.309 698.102 236.269C697.799 236.229 697.496 236.19 697.197 236.15C697.042 236.13 696.888 236.109 696.735 236.088C696.581 236.067 696.428 236.046 696.276 236.025C695.972 235.984 695.671 235.942 695.372 235.899C694.774 235.816 694.188 235.729 693.613 235.643C692.683 235.502 691.782 235.359 690.91 235.213C690.39 235.126 689.881 235.037 689.381 234.947C689.212 234.916 689.044 234.886 688.879 234.855C688.73 234.829 688.583 234.802 688.436 234.774C687.771 234.649 687.123 234.523 686.498 234.394C686.345 234.363 686.193 234.331 686.044 234.299C685.943 234.278 685.844 234.257 685.745 234.235C685.66 234.218 685.576 234.199 685.492 234.182C685.245 234.127 685.002 234.074 684.763 234.02C684.632 233.99 684.503 233.96 684.375 233.931C684.117 233.871 683.865 233.811 683.615 233.751C683.491 233.721 683.368 233.691 683.245 233.66C683.123 233.631 683.001 233.6 682.881 233.569C682.76 233.539 682.641 233.509 682.521 233.479C682.403 233.448 682.286 233.416 682.17 233.386C682.018 233.346 681.866 233.305 681.719 233.264C681.57 233.223 681.424 233.183 681.278 233.142C681.206 233.122 681.134 233.102 681.062 233.081C680.99 233.06 680.918 233.039 680.847 233.019C680.777 232.998 680.706 232.977 680.637 232.956C680.567 232.935 680.496 232.915 680.428 232.895C680.194 232.825 679.966 232.754 679.742 232.682C679.63 232.646 679.519 232.609 679.41 232.573C678.247 232.192 677.351 231.316 676.914 230.225C676.727 229.762 676.626 229.262 676.621 228.743L676.562 222.735L676.529 219.198L676.524 218.608L676.007 164.236L676.004 163.844L676.001 163.569C676 163.483 676.001 163.397 676.005 163.312C676.006 163.286 676.007 163.262 676.008 163.236V163.233C676.009 163.206 676.011 163.178 676.013 163.15C676.013 163.138 676.013 163.125 676.015 163.111C676.02 163.045 676.026 162.979 676.033 162.914C676.04 162.848 676.048 162.783 676.057 162.718C676.064 162.67 676.072 162.623 676.08 162.576L676.082 162.563C676.089 162.52 676.097 162.478 676.106 162.436C676.115 162.389 676.125 162.342 676.136 162.296C676.145 162.25 676.157 162.203 676.169 162.158L676.172 162.146C676.213 161.984 676.262 161.824 676.318 161.667C676.33 161.634 676.342 161.6 676.356 161.566C676.587 160.949 676.928 160.385 677.354 159.896C678.364 158.735 679.854 158 681.514 158H908.573Z" fill="#FAD12D"/>
<path d="M908.778 161.487C914.113 161.487 919.112 164.09 922.172 168.461H676.052L676.01 164.408L676.007 164.175L676.004 163.764L676 163.477C675.999 163.387 676 163.297 676.005 163.207C676.006 163.18 676.007 163.155 676.008 163.129V163.126C676.01 163.097 676.012 163.068 676.014 163.039C676.014 163.025 676.015 163.012 676.017 162.998C676.023 162.928 676.03 162.859 676.038 162.791C676.046 162.722 676.055 162.654 676.066 162.586C676.074 162.536 676.083 162.487 676.092 162.438L676.095 162.425C676.103 162.379 676.112 162.335 676.122 162.291C676.132 162.242 676.144 162.194 676.156 162.145C676.168 162.097 676.181 162.048 676.195 162.001L676.198 161.988C676.246 161.818 676.302 161.651 676.366 161.487H908.778Z" fill="#F6A80E"/>
<path d="M892.882 172.936V204.866H680.127V172.936H892.882Z" fill="#151B20"/>
<path d="M736.931 230.224C736.153 232.07 735.723 234.098 735.723 236.227C735.723 236.874 735.763 237.512 735.84 238.139H719.114C717.698 238.139 716.283 238.081 714.874 237.968C698.442 236.654 686.413 234.877 679.41 232.574C678.247 232.192 677.351 231.316 676.914 230.224H736.931Z" fill="#AE5B1E"/>
<mask id="mask0_2481_2503" style="mask-type:alpha" maskUnits="userSpaceOnUse" x="676" y="206" width="258" height="33">
<path d="M883.144 230.527C882.453 232.256 882.073 234.137 882.073 236.105C882.073 236.815 882.124 237.513 882.219 238.198H766.861C766.956 237.513 767.007 236.815 767.007 236.105C767.007 234.137 766.627 232.256 765.936 230.527H883.144Z" fill="#AE5B1E"/>
<path d="M933.678 238.198H913.309C913.404 237.513 913.455 236.815 913.455 236.105C913.455 234.137 913.075 232.256 912.385 230.527H933.678V238.198Z" fill="#AE5B1E"/>
<path d="M933.678 222.855H933.613L933.613 230.224H912.259C909.899 224.67 904.299 220.763 897.764 220.763C891.23 220.763 885.629 224.67 883.269 230.224H765.811C763.451 224.67 757.851 220.763 751.316 220.763C744.781 220.763 739.18 224.67 736.82 230.224H676.986C676.761 229.762 676.638 229.262 676.632 228.743L676.562 222.736H676.771L676.726 218.505L676.697 215.882H676.761L676.697 210.303H676.737L676.697 206.816H933.678V222.855Z" fill="#AE5B1E"/>
</mask>
<g mask="url(#mask0_2481_2503)">
<path d="M883.144 230.527C882.453 232.256 882.073 234.137 882.073 236.105C882.073 236.815 882.123 237.513 882.219 238.198H766.745C766.849 237.59 766.904 236.971 766.904 236.344C766.904 236.249 766.903 236.155 766.9 236.061C766.899 235.996 766.896 235.93 766.893 235.865C766.892 235.835 766.89 235.807 766.889 235.778L766.888 235.765C766.881 235.623 766.87 235.482 766.857 235.341C766.849 235.253 766.84 235.165 766.829 235.076C766.824 235.03 766.818 234.984 766.813 234.938C766.807 234.9 766.802 234.861 766.796 234.823C766.791 234.78 766.785 234.736 766.778 234.693C766.773 234.66 766.767 234.627 766.762 234.595C766.744 234.489 766.726 234.383 766.706 234.278L766.682 234.154C766.674 234.116 766.665 234.077 766.656 234.039C766.645 233.984 766.633 233.93 766.62 233.875C766.577 233.69 766.529 233.505 766.477 233.323C766.465 233.28 766.453 233.236 766.44 233.194C766.417 233.118 766.393 233.04 766.367 232.964C766.349 232.906 766.33 232.847 766.309 232.789C766.288 232.725 766.265 232.661 766.243 232.597C766.216 232.523 766.188 232.449 766.161 232.377C766.132 232.303 766.104 232.231 766.075 232.158C766.016 232.013 765.952 231.868 765.888 231.725C765.864 231.67 765.839 231.614 765.812 231.56C765.788 231.509 765.764 231.459 765.739 231.41C765.715 231.36 765.69 231.31 765.666 231.261C765.641 231.211 765.615 231.161 765.59 231.112C765.487 230.914 765.377 230.719 765.263 230.527H883.144Z" fill="#AE5B1E"/>
<path d="M933.678 238.198H913.309C913.404 237.513 913.455 236.815 913.455 236.105C913.455 234.137 913.075 232.256 912.384 230.527H933.678V238.198Z" fill="#AE5B1E"/>
<path d="M933.678 222.855H933.613V230.224H912.259C909.9 224.67 904.299 220.763 897.764 220.763C891.229 220.763 885.628 224.67 883.268 230.224H676.986C676.761 229.762 676.639 229.262 676.633 228.743L676.563 222.736H676.771L676.726 218.505L676.697 215.882H676.761L676.697 210.303H676.738L676.697 206.816H933.678V222.855Z" fill="#AE5B1E"/>
<path d="M933.678 206.816V210.303H676.738L676.697 206.816H933.678Z" fill="#F28B13"/>
<path d="M933.678 210.303L933.678 215.882H676.761L676.697 210.303H933.678Z" fill="#F7A70E"/>
<path d="M933.678 215.882L933.678 222.855H676.772L676.732 219.128L676.726 218.505L676.697 215.882H933.678Z" fill="#F7A70E"/>
<path d="M933.613 222.736L933.613 230.224H676.986C676.761 229.762 676.639 229.262 676.633 228.743L676.563 222.736L933.613 222.736Z" fill="#F28B13"/>
<path d="M933.678 230.527V238.198H766.745C766.849 237.59 766.904 236.971 766.904 236.344C766.904 236.249 766.903 236.155 766.9 236.061C766.899 235.996 766.896 235.93 766.893 235.865C766.892 235.835 766.89 235.807 766.889 235.778L766.888 235.765C766.881 235.623 766.87 235.482 766.857 235.341C766.849 235.253 766.84 235.165 766.829 235.076C766.824 235.03 766.818 234.984 766.813 234.938C766.807 234.9 766.802 234.861 766.796 234.823C766.791 234.78 766.785 234.736 766.778 234.693C766.773 234.66 766.767 234.627 766.762 234.595C766.744 234.489 766.726 234.383 766.706 234.278L766.682 234.154C766.674 234.116 766.665 234.077 766.656 234.039C766.645 233.984 766.633 233.93 766.62 233.875C766.577 233.69 766.529 233.505 766.477 233.323C766.465 233.28 766.453 233.236 766.44 233.194C766.417 233.118 766.393 233.04 766.367 232.964C766.349 232.906 766.33 232.847 766.309 232.789C766.288 232.725 766.265 232.661 766.243 232.597C766.216 232.523 766.188 232.449 766.161 232.377C766.132 232.303 766.104 232.231 766.075 232.158C766.016 232.013 765.952 231.868 765.888 231.725C765.864 231.67 765.839 231.614 765.812 231.56C765.788 231.509 765.764 231.459 765.739 231.41C765.715 231.36 765.69 231.31 765.666 231.261C765.641 231.211 765.615 231.161 765.59 231.112C765.487 230.914 765.377 230.719 765.263 230.527H933.678Z" fill="#AE5B1E"/>
</g>
<path d="M715.592 200.868H682.623V176.776H715.592V200.868Z" fill="#6F9FAD"/>
<path d="M754.494 200.868H718.128V176.776H754.494V200.868Z" fill="#6F9FAD"/>
<path d="M794.254 200.868H757.436V176.776H794.254V200.868Z" fill="#6F9FAD"/>
<path d="M870.005 200.868H835.472V176.776H870.005V200.868Z" fill="#6F9FAD"/>
<path d="M834.892 238.298H793.947V203.364H834.892V238.298Z" fill="#151B20"/>
<path d="M832.065 234.374H797.532V175.613H832.065V234.374Z" fill="#6F9FAD"/>
<path d="M889.603 176.776V200.868H873.036V176.776H889.603Z" fill="#6F9FAD"/>
<path d="M816.677 236.044H812.92V174.439H816.677V236.044Z" fill="#151B20"/>
<path d="M772.183 236.227C772.183 236.871 772.154 237.509 772.098 238.139H766.547C766.624 237.512 766.664 236.874 766.664 236.227C766.664 227.683 759.738 220.755 751.195 220.755C742.65 220.755 735.723 227.683 735.723 236.227C735.723 236.874 735.763 237.512 735.84 238.139H730.29C730.234 237.509 730.206 236.871 730.206 236.227C730.206 224.635 739.603 215.238 751.195 215.238C762.786 215.238 772.183 224.635 772.183 236.227Z" fill="#201F1F"/>
<path d="M768.653 236.227C768.653 236.873 768.617 237.511 768.548 238.139H766.547C766.624 237.512 766.664 236.874 766.664 236.227C766.664 227.683 759.738 220.755 751.195 220.755C742.65 220.755 735.723 227.683 735.723 236.227C735.723 236.874 735.763 237.512 735.84 238.139H733.84C733.771 237.511 733.735 236.873 733.735 236.227C733.735 226.585 741.552 218.768 751.195 218.768C760.836 218.768 768.653 226.585 768.653 236.227Z" fill="#302F2F"/>
<path d="M765.854 236.465C765.854 244.561 759.29 251.125 751.195 251.125C743.098 251.125 736.534 244.561 736.534 236.465C736.534 228.369 743.098 221.805 751.195 221.805C759.29 221.805 765.854 228.369 765.854 236.465Z" fill="#ADADAD"/>
<path d="M765.854 236.465C765.854 244.561 759.29 251.125 751.195 251.125C743.098 251.125 736.534 244.561 736.534 236.465C736.534 228.369 743.098 221.805 751.195 221.805C759.29 221.805 765.854 228.369 765.854 236.465Z" fill="#ADADAD"/>
<path d="M764.396 236.465C764.396 243.756 758.485 249.667 751.195 249.667C743.903 249.667 737.992 243.756 737.992 236.465C737.992 229.174 743.903 223.263 751.195 223.263C758.485 223.263 764.396 229.174 764.396 236.465Z" fill="#373737"/>
<path d="M758.075 236.465C758.075 240.265 754.994 243.346 751.195 243.346C747.394 243.346 744.313 240.265 744.313 236.465C744.313 232.666 747.394 229.584 751.195 229.584C754.994 229.584 758.075 232.666 758.075 236.465Z" fill="#181615"/>
<path d="M756.579 236.465C756.579 239.439 754.168 241.85 751.195 241.85C748.22 241.85 745.809 239.439 745.809 236.465C745.809 233.491 748.22 231.08 751.195 231.08C754.168 231.08 756.579 233.491 756.579 236.465Z" fill="#9FA09F"/>
<path d="M755.582 236.465C755.582 238.888 753.618 240.853 751.195 240.853C748.771 240.853 746.807 238.888 746.807 236.465C746.807 234.042 748.771 232.078 751.195 232.078C753.618 232.078 755.582 234.042 755.582 236.465Z" fill="white"/>
<path d="M918.82 236.173C918.82 236.817 918.791 237.456 918.735 238.086H913.184C913.261 237.459 913.302 236.82 913.302 236.173C913.302 227.629 906.375 220.702 897.832 220.702C889.288 220.702 882.36 227.629 882.36 236.173C882.36 236.82 882.4 237.459 882.477 238.086H876.928C876.871 237.456 876.843 236.817 876.843 236.173C876.843 224.582 886.24 215.184 897.832 215.184C909.424 215.184 918.82 224.582 918.82 236.173Z" fill="#201F1F"/>
<path d="M915.29 236.173C915.29 236.819 915.254 237.458 915.185 238.086H913.184C913.261 237.459 913.302 236.82 913.302 236.173C913.302 227.629 906.375 220.702 897.832 220.702C889.288 220.702 882.36 227.629 882.36 236.173C882.36 236.82 882.4 237.459 882.477 238.086H880.477C880.408 237.458 880.373 236.819 880.373 236.173C880.373 226.532 888.189 218.714 897.832 218.714C907.474 218.714 915.29 226.532 915.29 236.173Z" fill="#302F2F"/>
<path d="M911.033 236.411C911.033 243.703 905.122 249.613 897.832 249.613C890.54 249.613 884.629 243.703 884.629 236.411C884.629 229.12 890.54 223.21 897.832 223.21C905.122 223.21 911.033 229.12 911.033 236.411Z" fill="#373737"/>
<path d="M904.712 236.411C904.712 240.211 901.631 243.292 897.832 243.292C894.032 243.292 890.951 240.211 890.951 236.411C890.951 232.612 894.032 229.531 897.832 229.531C901.631 229.531 904.712 232.612 904.712 236.411Z" fill="#181615"/>
<path d="M903.216 236.411C903.216 239.386 900.805 241.796 897.832 241.796C894.857 241.796 892.447 239.386 892.447 236.411C892.447 233.437 894.857 231.027 897.832 231.027C900.805 231.027 903.216 233.437 903.216 236.411Z" fill="#9FA09F"/>
<path d="M902.219 236.411C902.219 238.834 900.255 240.799 897.832 240.799C895.408 240.799 893.444 238.834 893.444 236.411C893.444 233.989 895.408 232.024 897.832 232.024C900.255 232.024 902.219 233.989 902.219 236.411Z" fill="white"/>
<path d="M896.369 172.645H908.146C919.744 172.645 929.146 182.047 929.146 193.645V204.724H896.369V172.645Z" fill="#151B20"/>
<path d="M899.647 175.434H908.049C917.437 175.434 925.049 183.045 925.049 192.434V201.237H899.647V175.434Z" fill="#6F9FAD"/>
<path d="M213.823 208.629H217.999V158.927H213.823V208.629Z" fill="#4E2F16"/>
<path d="M187.411 164.458C187.411 165.309 187.536 166.144 187.779 166.958C188.2 168.376 188.974 169.729 190.051 170.99C190.837 171.914 191.786 172.787 192.876 173.599C193.202 173.843 193.54 174.081 193.89 174.313C194.326 174.602 194.782 174.882 195.254 175.153C195.995 175.577 196.779 175.977 197.602 176.354C198.249 176.65 198.919 176.93 199.612 177.193C199.808 177.268 200.006 177.341 200.207 177.414C200.567 177.544 200.934 177.669 201.306 177.789C202.644 178.225 204.052 178.603 205.52 178.916C205.923 179.003 206.331 179.084 206.742 179.159C207.907 179.375 209.106 179.55 210.333 179.684C210.531 179.705 210.73 179.725 210.929 179.744C211.879 179.835 212.844 179.901 213.823 179.939C214.513 179.967 215.208 179.981 215.91 179.981C216.613 179.981 217.309 179.967 217.999 179.939C223.822 179.71 229.159 178.527 233.489 176.676V152.239C233.443 152.22 233.399 152.201 233.354 152.181C233.399 152.127 233.445 152.072 233.489 152.018V135.729C232.805 134.897 232.019 134.116 231.145 133.397C232.036 132.595 232.824 131.721 233.489 130.788V115.788C231.66 113.23 228.923 111.115 225.617 109.699C226.361 107.598 226.78 105.221 226.78 102.706C226.78 94.1334 221.914 87.183 215.91 87.183C209.908 87.183 205.042 94.1334 205.042 102.706C205.042 105.221 205.461 107.598 206.205 109.699C200.023 112.346 195.837 117.44 195.837 123.289C195.837 127.151 197.66 130.681 200.677 133.397C198.381 135.284 196.696 137.598 195.86 140.161C195.471 141.351 195.265 142.595 195.265 143.874C195.265 144.455 195.307 145.028 195.391 145.592C195.567 146.797 195.928 147.962 196.45 149.067C196.558 149.297 196.675 149.525 196.797 149.75C196.915 149.967 197.04 150.183 197.172 150.395C197.545 151.002 197.97 151.587 198.441 152.148C198.45 152.16 198.459 152.17 198.468 152.181C193.448 154.301 189.761 157.315 188.215 160.785C188.131 160.97 188.054 161.158 187.984 161.347C187.673 162.18 187.484 163.037 187.429 163.913C187.417 164.094 187.411 164.276 187.411 164.458Z" fill="#4FC176"/>
<path d="M244.489 164.275C244.489 165.126 244.364 165.961 244.121 166.774C243.7 168.193 242.926 169.546 241.849 170.807C241.063 171.731 240.115 172.604 239.024 173.416C238.698 173.66 238.36 173.898 238.01 174.13C237.574 174.419 237.119 174.699 236.646 174.97C235.905 175.394 235.121 175.794 234.298 176.171C233.651 176.467 232.981 176.747 232.288 177.01C232.092 177.085 231.894 177.158 231.693 177.231C231.333 177.361 230.966 177.486 230.594 177.606C229.256 178.042 227.848 178.42 226.38 178.733C225.977 178.82 225.57 178.901 225.159 178.976C223.993 179.192 222.794 179.367 221.567 179.5C221.369 179.522 221.17 179.541 220.971 179.561C220.022 179.652 219.056 179.718 218.077 179.755C217.388 179.784 216.692 179.798 215.99 179.798C215.287 179.798 214.591 179.784 213.901 179.755C208.079 179.527 202.741 178.344 198.411 176.493V152.056C198.457 152.037 198.501 152.018 198.547 151.998C198.501 151.944 198.456 151.889 198.411 151.834V135.546C199.095 134.714 199.881 133.933 200.755 133.214C199.864 132.412 199.076 131.538 198.411 130.605V115.605C200.24 113.047 202.977 110.932 206.284 109.516C205.539 107.415 205.12 105.038 205.12 102.523C205.12 93.9504 209.986 87 215.99 87C221.992 87 226.858 93.9504 226.858 102.523C226.858 105.038 226.439 107.415 225.695 109.516C231.877 112.163 236.063 117.257 236.063 123.106C236.063 126.967 234.24 130.498 231.223 133.214C233.519 135.101 235.204 137.415 236.041 139.978C236.429 141.168 236.635 142.412 236.635 143.691C236.635 144.272 236.593 144.845 236.51 145.409C236.333 146.614 235.972 147.779 235.45 148.884C235.342 149.114 235.226 149.342 235.103 149.567C234.985 149.784 234.86 150 234.728 150.212C234.355 150.819 233.93 151.404 233.459 151.965C233.45 151.977 233.441 151.987 233.432 151.998C238.453 154.118 242.14 157.132 243.685 160.602C243.77 160.787 243.846 160.975 243.916 161.164C244.227 161.997 244.416 162.854 244.471 163.73C244.483 163.911 244.489 164.093 244.489 164.275Z" fill="#4FC176"/>
<path d="M424.823 210.629H428.999V160.927H424.823V210.629Z" fill="#4E2F16"/>
<path d="M398.411 166.458C398.411 167.309 398.536 168.144 398.779 168.958C399.2 170.376 399.974 171.729 401.051 172.99C401.837 173.914 402.786 174.787 403.876 175.599C404.202 175.843 404.54 176.081 404.89 176.313C405.326 176.602 405.782 176.882 406.254 177.153C406.995 177.577 407.779 177.977 408.602 178.354C409.249 178.65 409.919 178.93 410.613 179.193C410.808 179.268 411.006 179.341 411.207 179.414C411.568 179.544 411.934 179.669 412.306 179.789C413.644 180.225 415.052 180.603 416.52 180.916C416.923 181.003 417.331 181.084 417.742 181.159C418.907 181.375 420.106 181.55 421.333 181.684C421.531 181.705 421.73 181.725 421.929 181.744C422.879 181.835 423.844 181.901 424.823 181.939C425.513 181.967 426.208 181.981 426.91 181.981C427.613 181.981 428.309 181.967 428.999 181.939C434.822 181.71 440.159 180.527 444.489 178.676V154.239C444.444 154.22 444.399 154.201 444.354 154.181C444.399 154.127 444.445 154.072 444.489 154.018V137.729C443.805 136.897 443.019 136.116 442.145 135.397C443.037 134.595 443.824 133.721 444.489 132.788V117.788C442.66 115.23 439.923 113.115 436.617 111.699C437.361 109.598 437.78 107.221 437.78 104.706C437.78 96.1334 432.914 89.183 426.91 89.183C420.908 89.183 416.042 96.1334 416.042 104.706C416.042 107.221 416.461 109.598 417.205 111.699C411.023 114.346 406.837 119.44 406.837 125.289C406.837 129.151 408.66 132.681 411.677 135.397C409.381 137.284 407.696 139.598 406.86 142.161C406.471 143.351 406.265 144.595 406.265 145.874C406.265 146.455 406.308 147.028 406.391 147.592C406.567 148.797 406.928 149.962 407.45 151.067C407.559 151.297 407.675 151.525 407.798 151.75C407.915 151.967 408.04 152.183 408.172 152.395C408.545 153.002 408.97 153.587 409.441 154.148C409.45 154.16 409.459 154.17 409.469 154.181C404.448 156.301 400.761 159.315 399.215 162.785C399.131 162.97 399.054 163.158 398.984 163.347C398.673 164.18 398.484 165.037 398.429 165.913C398.417 166.094 398.411 166.276 398.411 166.458Z" fill="#4FC176"/>
<path d="M455.489 166.275C455.489 167.126 455.364 167.961 455.121 168.774C454.7 170.193 453.926 171.546 452.849 172.807C452.063 173.731 451.115 174.604 450.024 175.416C449.699 175.66 449.36 175.898 449.01 176.13C448.574 176.419 448.119 176.699 447.646 176.97C446.905 177.394 446.121 177.794 445.298 178.171C444.651 178.467 443.981 178.747 443.288 179.01C443.092 179.085 442.894 179.158 442.694 179.231C442.333 179.361 441.966 179.486 441.594 179.606C440.256 180.042 438.848 180.42 437.38 180.733C436.977 180.82 436.57 180.901 436.159 180.976C434.993 181.192 433.794 181.367 432.567 181.5C432.369 181.522 432.17 181.541 431.971 181.561C431.022 181.652 430.056 181.718 429.077 181.755C428.388 181.784 427.692 181.798 426.99 181.798C426.287 181.798 425.591 181.784 424.901 181.755C419.079 181.527 413.741 180.344 409.411 178.493V154.056C409.457 154.037 409.501 154.018 409.547 153.998C409.501 153.944 409.456 153.889 409.411 153.834V137.546C410.095 136.714 410.881 135.933 411.755 135.214C410.864 134.412 410.076 133.538 409.411 132.605V117.605C411.24 115.047 413.977 112.932 417.284 111.516C416.539 109.415 416.12 107.038 416.12 104.523C416.12 95.9504 420.986 89 426.99 89C432.992 89 437.858 95.9504 437.858 104.523C437.858 107.038 437.439 109.415 436.695 111.516C442.877 114.163 447.063 119.257 447.063 125.106C447.063 128.967 445.24 132.498 442.223 135.214C444.519 137.101 446.204 139.415 447.041 141.978C447.429 143.168 447.635 144.412 447.635 145.691C447.635 146.272 447.593 146.845 447.51 147.409C447.333 148.614 446.972 149.779 446.45 150.884C446.342 151.114 446.226 151.342 446.103 151.567C445.985 151.784 445.86 152 445.728 152.212C445.355 152.819 444.93 153.404 444.459 153.965C444.45 153.977 444.441 153.987 444.432 153.998C449.453 156.118 453.14 159.132 454.685 162.602C454.77 162.787 454.846 162.975 454.916 163.164C455.227 163.997 455.416 164.854 455.471 165.73C455.483 165.911 455.489 166.093 455.489 166.275Z" fill="#4FC176"/>
<path d="M14.5605 216.752H6V143H14.5605V216.752Z" fill="#4E2F16"/>
<path d="M37.3252 131.935C39.9455 128.832 41.4628 125.153 41.4628 121.207C41.4628 115.992 38.814 111.243 34.4738 107.678C38.369 104.171 40.7241 99.611 40.7241 94.6253C40.7241 87.0705 35.3184 80.4935 27.3344 77.0764C28.2963 74.3627 28.8381 71.2939 28.8381 68.0452C28.8381 56.9743 22.5536 48 14.8019 48C7.05019 48 0.765713 56.9743 0.765713 68.0452C0.765713 71.2939 1.30754 74.3627 2.26939 77.0764C-5.71454 80.4935 -11.1203 87.0705 -11.1203 94.6253C-11.1203 99.611 -8.76515 104.171 -4.86993 107.678C-9.21022 111.243 -11.859 115.992 -11.859 121.207C-11.859 125.153 -10.3405 128.832 -7.72134 131.935C-16.4087 135.601 -22 141.338 -22 147.788C-22 158.858 -5.52331 167.832 14.8019 167.832C35.1271 167.832 51.6038 158.858 51.6038 147.788C51.6038 141.338 46.0126 135.601 37.3252 131.935Z" fill="#4FC176"/>
<path d="M126.068 220.016H120.036V168.047H126.068V220.016Z" fill="#4E2F16"/>
<path d="M98 176.472L108.816 158.161H99.6027L110.218 140.187H102.006L113.723 120.349H108.415L123.018 95.6269L123.016 95.5085L123.052 95.5688L123.088 95.5085L123.092 95.6371L137.688 120.349H132.38L144.098 140.187H135.885L146.501 158.161H137.288L148.104 176.472H125.879L125.881 176.516L98 176.472Z" fill="#328E53"/>
<path d="M327.832 222.016H319.272V148.265H327.832V222.016Z" fill="#4E2F16"/>
<path d="M288 160.222L303.349 134.235H290.274L305.339 108.729H293.685L310.313 80.5759H302.781L323.503 45.4915L323.501 45.3235L323.552 45.4091L323.603 45.3235L323.609 45.5061L344.323 80.5759H336.79L353.419 108.729H341.764L356.83 134.235H343.754L359.104 160.222H327.564L327.567 160.283L288 160.222Z" fill="#328E53"/>
<path d="M455 196.653C455 197.111 455.083 197.559 455.245 197.997C455.525 198.76 456.04 199.487 456.757 200.166C457.281 200.662 457.912 201.131 458.638 201.569C458.855 201.7 459.08 201.827 459.314 201.952C459.604 202.108 459.907 202.258 460.221 202.404C460.715 202.632 461.237 202.847 461.785 203.05C462.215 203.209 462.662 203.36 463.123 203.501C463.253 203.541 463.385 203.581 463.519 203.62C463.759 203.689 464.003 203.757 464.251 203.822C465.141 204.056 466.079 204.259 467.056 204.428C467.324 204.474 467.596 204.518 467.869 204.558C468.645 204.674 469.443 204.769 470.26 204.84C470.392 204.852 470.525 204.862 470.657 204.873C471.289 204.922 471.932 204.957 472.584 204.977C473.043 204.993 473.506 205 473.974 205C474.441 205 474.905 204.993 475.364 204.977C479.24 204.854 482.794 204.218 485.677 203.223V190.082C485.646 190.072 485.617 190.061 485.587 190.051C485.617 190.022 485.647 189.992 485.677 189.963V181.204C485.221 180.756 484.698 180.336 484.116 179.95C484.71 179.519 485.234 179.048 485.677 178.547V170.481C484.459 169.105 482.637 167.968 480.436 167.207C480.931 166.077 481.21 164.799 481.21 163.446C481.21 158.836 477.97 155.098 473.974 155.098C469.978 155.098 466.738 158.836 466.738 163.446C466.738 164.799 467.017 166.077 467.512 167.207C463.397 168.63 460.609 171.369 460.609 174.515C460.609 176.591 461.823 178.49 463.832 179.95C462.303 180.964 461.182 182.209 460.625 183.587C460.366 184.227 460.229 184.896 460.229 185.584C460.229 185.896 460.257 186.205 460.312 186.508C460.43 187.156 460.67 187.782 461.018 188.376C461.09 188.5 461.167 188.622 461.249 188.744C461.327 188.861 461.41 188.976 461.498 189.091C461.747 189.417 462.03 189.732 462.343 190.033C462.349 190.039 462.355 190.045 462.361 190.051C459.019 191.191 456.564 192.812 455.535 194.677C455.479 194.777 455.428 194.878 455.381 194.98C455.174 195.428 455.049 195.889 455.012 196.359C455.004 196.457 455 196.555 455 196.653Z" fill="#4FC176"/>
<path d="M493 196.554C493 197.012 492.917 197.461 492.755 197.898C492.475 198.661 491.96 199.389 491.243 200.067C490.719 200.564 490.088 201.033 489.362 201.47C489.145 201.601 488.92 201.729 488.686 201.854C488.396 202.009 488.093 202.16 487.779 202.306C487.285 202.533 486.763 202.749 486.215 202.951C485.785 203.111 485.338 203.261 484.877 203.403C484.747 203.443 484.615 203.482 484.481 203.521C484.241 203.591 483.997 203.658 483.749 203.723C482.859 203.958 481.921 204.161 480.944 204.329C480.676 204.376 480.404 204.419 480.131 204.46C479.355 204.576 478.557 204.67 477.74 204.742C477.608 204.753 477.475 204.764 477.343 204.774C476.711 204.823 476.068 204.859 475.416 204.879C474.957 204.894 474.494 204.902 474.026 204.902C473.559 204.902 473.095 204.894 472.636 204.879C468.76 204.756 465.206 204.12 462.323 203.125V189.984C462.354 189.973 462.383 189.963 462.413 189.953C462.383 189.923 462.353 189.894 462.323 189.864V181.105C462.779 180.658 463.302 180.238 463.884 179.852C463.29 179.42 462.766 178.95 462.323 178.449V170.382C463.541 169.007 465.363 167.87 467.564 167.108C467.069 165.978 466.79 164.7 466.79 163.347C466.79 158.738 470.03 155 474.026 155C478.022 155 481.262 158.738 481.262 163.347C481.262 164.7 480.983 165.978 480.488 167.108C484.603 168.531 487.391 171.27 487.391 174.416C487.391 176.492 486.177 178.391 484.168 179.852C485.697 180.866 486.818 182.11 487.375 183.489C487.634 184.128 487.771 184.797 487.771 185.485C487.771 185.798 487.743 186.106 487.688 186.409C487.57 187.057 487.33 187.684 486.982 188.278C486.91 188.402 486.833 188.524 486.751 188.645C486.673 188.762 486.59 188.878 486.502 188.992C486.253 189.318 485.97 189.633 485.657 189.935C485.651 189.941 485.645 189.947 485.639 189.953C488.981 191.092 491.436 192.713 492.465 194.579C492.521 194.679 492.572 194.78 492.619 194.881C492.826 195.329 492.951 195.79 492.988 196.261C492.996 196.358 493 196.456 493 196.554Z" fill="#4FC176"/>
</svg>
