<svg width="189" height="63" viewBox="0 0 189 63" fill="none" xmlns="http://www.w3.org/2000/svg">
<path d="M66.531 28.405C64.947 28.405 63.507 28.135 62.211 27.595C60.933 27.055 59.907 26.272 59.133 25.246C58.377 24.202 57.999 22.924 57.999 21.412H62.805C62.895 22.42 63.273 23.167 63.939 23.653C64.605 24.139 65.433 24.382 66.423 24.382C67.395 24.382 68.196 24.211 68.826 23.869C69.456 23.527 69.771 23.05 69.771 22.438C69.771 21.916 69.582 21.529 69.204 21.277C68.826 21.025 68.25 20.782 67.476 20.548L63.156 19.279C62.31 19.027 61.509 18.712 60.753 18.334C59.997 17.938 59.385 17.398 58.917 16.714C58.467 16.03 58.242 15.103 58.242 13.933C58.242 12.583 58.566 11.422 59.214 10.45C59.862 9.46 60.78 8.695 61.968 8.155C63.156 7.615 64.551 7.345 66.153 7.345C68.475 7.345 70.356 7.912 71.796 9.046C73.254 10.18 74.091 11.791 74.307 13.879H69.447C69.069 12.169 67.908 11.314 65.964 11.314C65.028 11.314 64.308 11.494 63.804 11.854C63.318 12.214 63.075 12.7 63.075 13.312C63.075 13.762 63.228 14.14 63.534 14.446C63.84 14.752 64.326 15.004 64.992 15.202L69.501 16.552C71.229 17.056 72.489 17.749 73.281 18.631C74.073 19.513 74.469 20.665 74.469 22.087C74.469 23.347 74.136 24.454 73.47 25.408C72.822 26.344 71.904 27.082 70.716 27.622C69.528 28.144 68.133 28.405 66.531 28.405ZM88.952 28.405C87.98 28.405 87.197 28.117 86.603 27.541C86.009 26.947 85.568 26.101 85.28 25.003L82.418 13.663C82.4 13.627 82.373 13.618 82.337 13.636C82.301 13.636 82.283 13.654 82.283 13.69V27.973H77.666V11.53C77.666 10.198 78.044 9.172 78.8 8.452C79.556 7.714 80.501 7.345 81.635 7.345C83.741 7.345 85.136 8.632 85.82 11.206L88.844 22.276C88.862 22.33 88.889 22.357 88.925 22.357C88.961 22.357 88.988 22.33 89.006 22.276L91.949 11.206C92.291 9.946 92.813 8.992 93.515 8.344C94.235 7.678 95.144 7.345 96.242 7.345C97.376 7.345 98.312 7.714 99.05 8.452C99.806 9.172 100.184 10.198 100.184 11.53V27.973H95.594V13.501C95.594 13.465 95.576 13.438 95.54 13.42C95.504 13.402 95.477 13.42 95.459 13.474L92.57 25.003C92.3 26.101 91.868 26.947 91.274 27.541C90.698 28.117 89.924 28.405 88.952 28.405ZM102.49 28L108.322 11.476C108.628 10.594 108.934 9.847 109.24 9.235C109.564 8.623 109.96 8.155 110.428 7.831C110.914 7.507 111.535 7.345 112.291 7.345C113.065 7.345 113.695 7.507 114.181 7.831C114.667 8.155 115.072 8.623 115.396 9.235C115.738 9.829 116.053 10.558 116.341 11.422L122.011 28H117.205L115.882 23.707H108.619L107.242 28H102.49ZM112.237 12.556L109.915 19.711H114.613L112.399 12.556C112.381 12.484 112.354 12.448 112.318 12.448C112.282 12.448 112.255 12.484 112.237 12.556ZM124.31 28V7.75H132.356C134.876 7.75 136.811 8.263 138.161 9.289C139.511 10.297 140.186 11.746 140.186 13.636C140.186 14.752 139.889 15.724 139.295 16.552C138.701 17.38 137.855 18.019 136.757 18.469C137.999 18.865 138.836 19.459 139.268 20.251C139.7 21.025 139.916 22.015 139.916 23.221V28H135.272V23.707C135.272 21.637 134.3 20.602 132.356 20.602H129.008V28H124.31ZM129.008 16.633H132.356C133.31 16.633 134.039 16.417 134.543 15.985C135.065 15.535 135.326 14.905 135.326 14.095C135.326 13.357 135.065 12.79 134.543 12.394C134.039 11.98 133.31 11.773 132.356 11.773H129.008V16.633ZM147.375 28V11.962H141.651V7.75H157.851V11.962H152.127V28H147.375Z" fill="#5F93A2"/>
<path d="M58.998 56V35.75H67.773C69.969 35.75 71.661 36.245 72.849 37.235C74.037 38.207 74.631 39.548 74.631 41.258C74.631 42.284 74.37 43.175 73.848 43.931C73.326 44.687 72.615 45.236 71.715 45.578C72.705 45.866 73.506 46.415 74.118 47.225C74.748 48.017 75.063 49.061 75.063 50.357C75.063 52.103 74.469 53.48 73.281 54.488C72.093 55.496 70.401 56 68.205 56H58.998ZM63.669 43.823H67.53C68.232 43.823 68.817 43.652 69.285 43.31C69.753 42.95 69.987 42.437 69.987 41.771C69.987 41.105 69.753 40.601 69.285 40.259C68.817 39.917 68.232 39.746 67.53 39.746H63.669V43.823ZM63.669 52.004H68.043C68.745 52.004 69.33 51.797 69.798 51.383C70.266 50.951 70.5 50.375 70.5 49.655C70.5 48.935 70.266 48.368 69.798 47.954C69.33 47.54 68.745 47.333 68.043 47.333H63.669V52.004ZM86.7228 56.405C84.9948 56.405 83.4738 56.072 82.1598 55.406C80.8638 54.722 79.8468 53.768 79.1088 52.544C78.3888 51.302 78.0288 49.844 78.0288 48.17V35.75H82.7808V48.17C82.7808 49.448 83.1318 50.465 83.8338 51.221C84.5358 51.977 85.4808 52.355 86.6688 52.355C87.8928 52.355 88.8558 51.977 89.5578 51.221C90.2598 50.465 90.6108 49.448 90.6108 48.17V35.75H95.3628V48.17C95.3628 49.844 94.9938 51.302 94.2558 52.544C93.5358 53.768 92.5278 54.722 91.2318 55.406C89.9358 56.072 88.4328 56.405 86.7228 56.405ZM106.609 56.405C105.025 56.405 103.585 56.135 102.289 55.595C101.011 55.055 99.9851 54.272 99.2111 53.246C98.4551 52.202 98.0771 50.924 98.0771 49.412H102.883C102.973 50.42 103.351 51.167 104.017 51.653C104.683 52.139 105.511 52.382 106.501 52.382C107.473 52.382 108.274 52.211 108.904 51.869C109.534 51.527 109.849 51.05 109.849 50.438C109.849 49.916 109.66 49.529 109.282 49.277C108.904 49.025 108.328 48.782 107.554 48.548L103.234 47.279C102.388 47.027 101.587 46.712 100.831 46.334C100.075 45.938 99.4631 45.398 98.9951 44.714C98.5451 44.03 98.3201 43.103 98.3201 41.933C98.3201 40.583 98.6441 39.422 99.2921 38.45C99.9401 37.46 100.858 36.695 102.046 36.155C103.234 35.615 104.629 35.345 106.231 35.345C108.553 35.345 110.434 35.912 111.874 37.046C113.332 38.18 114.169 39.791 114.385 41.879H109.525C109.147 40.169 107.986 39.314 106.042 39.314C105.106 39.314 104.386 39.494 103.882 39.854C103.396 40.214 103.153 40.7 103.153 41.312C103.153 41.762 103.306 42.14 103.612 42.446C103.918 42.752 104.404 43.004 105.07 43.202L109.579 44.552C111.307 45.056 112.567 45.749 113.359 46.631C114.151 47.513 114.547 48.665 114.547 50.087C114.547 51.347 114.214 52.454 113.548 53.408C112.9 54.344 111.982 55.082 110.794 55.622C109.606 56.144 108.211 56.405 106.609 56.405ZM125.488 56.405C123.904 56.405 122.464 56.135 121.168 55.595C119.89 55.055 118.864 54.272 118.09 53.246C117.334 52.202 116.956 50.924 116.956 49.412H121.762C121.852 50.42 122.23 51.167 122.896 51.653C123.562 52.139 124.39 52.382 125.38 52.382C126.352 52.382 127.153 52.211 127.783 51.869C128.413 51.527 128.728 51.05 128.728 50.438C128.728 49.916 128.539 49.529 128.161 49.277C127.783 49.025 127.207 48.782 126.433 48.548L122.113 47.279C121.267 47.027 120.466 46.712 119.71 46.334C118.954 45.938 118.342 45.398 117.874 44.714C117.424 44.03 117.199 43.103 117.199 41.933C117.199 40.583 117.523 39.422 118.171 38.45C118.819 37.46 119.737 36.695 120.925 36.155C122.113 35.615 123.508 35.345 125.11 35.345C127.432 35.345 129.313 35.912 130.753 37.046C132.211 38.18 133.048 39.791 133.264 41.879H128.404C128.026 40.169 126.865 39.314 124.921 39.314C123.985 39.314 123.265 39.494 122.761 39.854C122.275 40.214 122.032 40.7 122.032 41.312C122.032 41.762 122.185 42.14 122.491 42.446C122.797 42.752 123.283 43.004 123.949 43.202L128.458 44.552C130.186 45.056 131.446 45.749 132.238 46.631C133.03 47.513 133.426 48.665 133.426 50.087C133.426 51.347 133.093 52.454 132.427 53.408C131.779 54.344 130.861 55.082 129.673 55.622C128.485 56.144 127.09 56.405 125.488 56.405ZM136.623 56V35.75H141.402V56H136.623ZM159.254 56.405C158.426 56.405 157.724 56.18 157.148 55.73C156.59 55.28 156.05 54.533 155.528 53.489L150.047 42.419C150.029 42.365 149.993 42.338 149.939 42.338C149.903 42.338 149.885 42.374 149.885 42.446V55.973H145.403V38.774C145.403 37.658 145.727 36.812 146.375 36.236C147.041 35.642 147.815 35.345 148.697 35.345C149.597 35.345 150.353 35.579 150.965 36.047C151.577 36.515 152.099 37.199 152.531 38.099L157.661 48.737C157.697 48.791 157.733 48.818 157.769 48.818C157.805 48.8 157.823 48.755 157.823 48.683V35.75H162.305V53.327C162.305 54.371 161.99 55.145 161.36 55.649C160.748 56.153 160.046 56.405 159.254 56.405ZM175.195 56.405C173.215 56.405 171.496 55.982 170.038 55.136C168.598 54.272 167.491 53.057 166.717 51.491C165.943 49.925 165.556 48.062 165.556 45.902C165.556 43.742 165.943 41.879 166.717 40.313C167.491 38.729 168.589 37.505 170.011 36.641C171.433 35.777 173.098 35.345 175.006 35.345C176.68 35.345 178.156 35.669 179.434 36.317C180.73 36.947 181.738 37.82 182.458 38.936C183.178 40.052 183.538 41.33 183.538 42.77H178.678C178.606 41.816 178.237 41.033 177.571 40.421C176.905 39.809 176.05 39.503 175.006 39.503C173.548 39.503 172.414 40.079 171.604 41.231C170.812 42.365 170.416 43.895 170.416 45.821C170.416 47.819 170.839 49.394 171.685 50.546C172.531 51.698 173.701 52.274 175.195 52.274C176.185 52.274 177.013 51.986 177.679 51.41C178.363 50.816 178.822 49.898 179.056 48.656H175.33V44.795H180.244C181.576 44.795 182.53 45.101 183.106 45.713C183.682 46.325 183.97 47.189 183.97 48.305C183.97 49.133 183.817 50.015 183.511 50.951C183.205 51.887 182.71 52.769 182.026 53.597C181.342 54.425 180.433 55.1 179.299 55.622C178.183 56.144 176.815 56.405 175.195 56.405Z" fill="#5F93A2"/>
<path fill-rule="evenodd" clip-rule="evenodd" d="M22.5 5C34.9401 5 45 14.8013 45 26.9087C45 26.9253 44.9995 26.9418 44.9994 26.9584C44.9995 26.9714 45 26.9843 45 26.9973C45 39.0826 30.7635 50.791 22.5 57C13.4731 51.1237 0 39.0826 0 26.9973V26.9087C9.53877e-06 14.8013 10.0599 5 22.5 5ZM25.1974 13.6684H20.3723C20.3603 13.6679 17.1492 13.5528 13.8094 15.303C13.791 15.3079 12.2117 15.7385 12.1072 17.5734L11.4764 24.0148C11.4764 24.0148 11.3924 25.2701 11.3924 25.5839V33.6683C11.393 33.6906 11.4508 35.4969 14.0619 35.717V38.7622C14.0619 38.7622 14.293 39.6666 15.1127 39.6667H16.1007C16.9204 39.6667 17.1515 38.7622 17.1515 38.7622V35.717H23.815V35.6984H28.397V38.7436C28.397 38.7436 28.6281 39.648 29.4478 39.648H30.4569C31.2766 39.648 31.5077 38.7436 31.5077 38.7436V35.6984C34.1485 35.4775 34.1771 33.6601 34.1772 33.6497V25.5653C34.1772 25.2722 34.0945 24.0164 34.0932 23.9967L33.4413 17.5548C33.3369 15.7229 31.7834 15.2912 31.7602 15.2849C28.4205 13.5532 25.2094 13.6679 25.1974 13.6684Z" fill="#5F93A2"/>
<path d="M15.6691 32.1556C16.4018 32.1556 17.0245 31.5523 17.0245 30.7982C17.0245 30.0252 16.4018 29.422 15.6691 29.422C14.9182 29.422 14.2955 30.0252 14.2955 30.7982C14.2955 31.5523 14.9182 32.1556 15.6691 32.1556Z" fill="#5F93A2"/>
<path d="M29.9188 32.1556C29.1679 32.1556 28.5634 31.5523 28.5634 30.7982C28.5634 30.0252 29.1862 29.422 29.9188 29.422C30.6514 29.422 31.2925 30.0252 31.2925 30.7982C31.2742 31.5523 30.6514 32.1556 29.9188 32.1556Z" fill="#5F93A2"/>
<path d="M30.0653 25.9154C31.2192 25.9154 31.3291 24.558 31.3291 24.558C31.3291 24.558 31.0544 21.6736 30.9079 20.2597C30.743 18.8457 29.5159 18.9211 29.5159 18.9211H16.0538C16.0538 18.9211 14.8266 18.8457 14.6618 20.2597C14.5152 21.6547 14.2405 24.558 14.2405 24.558C14.2405 24.558 14.3504 25.9154 15.5043 25.9154H30.0653Z" fill="#5F93A2"/>
<path d="M26.5543 16.9708C27.0647 16.9708 27.4668 16.6157 27.4668 16.1786C27.4668 15.7688 27.0802 15.4 26.5543 15.4H19.2073C18.7123 15.4 18.3102 15.7551 18.3102 16.1786C18.3102 16.6293 18.7123 16.9708 19.2073 16.9708H26.5543Z" fill="#5F93A2"/>
</svg>
